<?xml version="1.0" encoding="UTF-8" standalone="no"?><!DOCTYPE svg PUBLIC "-//W3C//DTD SVG 1.1//EN" "http://www.w3.org/Graphics/SVG/1.1/DTD/svg11.dtd"><svg width="100%" height="100%" viewBox="0 0 1459 1713" version="1.1" xmlns="http://www.w3.org/2000/svg" xmlns:xlink="http://www.w3.org/1999/xlink" xml:space="preserve" xmlns:serif="http://www.serif.com/" style="fill-rule:evenodd;clip-rule:evenodd;stroke-linejoin:round;stroke-miterlimit:2;"><path d="M495.72,34.18c0.848,0.034 1.666,0.059 2.454,0.076l4.069,0.064c0.551,0.008 1.022,0.012 1.411,0.012c0.78,0 1.518,-0.025 2.213,-0.076c0.695,-0.051 1.289,-0.102 1.78,-0.153c0.187,0.645 0.28,1.153 0.28,1.526c-0,0.746 -0.309,1.238 -0.928,1.475c-0.619,0.238 -1.513,0.356 -2.683,0.356c-1.17,0 -2.476,-0.063 -3.917,-0.19c-1.441,-0.128 -3.026,-0.25 -4.755,-0.369c-0.068,2.017 -0.153,4.213 -0.255,6.587c-0.101,2.373 -0.233,4.831 -0.394,7.375c-0.161,2.543 -0.36,5.124 -0.598,7.743c-0.237,2.62 -0.529,5.176 -0.877,7.668c-0.347,2.492 -0.759,4.87 -1.233,7.133c-0.475,2.264 -1.026,4.32 -1.653,6.168c-1.001,2.899 -2.128,5.319 -3.383,7.26c-1.254,1.941 -2.589,3.501 -4.005,4.68c-1.416,1.178 -2.882,2.017 -4.4,2.517c-1.517,0.5 -3.03,0.751 -4.539,0.751c-1.306,-0 -2.514,-0.145 -3.624,-0.433c-1.111,-0.288 -2.073,-0.678 -2.887,-1.17c-0.813,-0.491 -1.453,-1.064 -1.92,-1.716c-0.466,-0.653 -0.699,-1.344 -0.699,-2.073c-0,-0.407 0.093,-0.809 0.28,-1.208c0.186,-0.398 0.445,-0.75 0.775,-1.055c0.331,-0.305 0.721,-0.556 1.17,-0.751c0.449,-0.195 0.937,-0.292 1.462,-0.292c0.492,0.882 1.035,1.632 1.628,2.251c0.593,0.619 1.229,1.127 1.907,1.526c0.679,0.398 1.382,0.69 2.111,0.877c0.729,0.186 1.467,0.28 2.213,0.28c1.949,-0 3.607,-0.632 4.972,-1.895c1.364,-1.263 2.509,-3.052 3.433,-5.366c0.924,-2.314 1.649,-5.107 2.174,-8.38c0.526,-3.272 0.928,-6.913 1.208,-10.922c0.28,-4.01 0.466,-8.342 0.56,-12.996c0.093,-4.654 0.156,-9.532 0.19,-14.635c-1.593,0.016 -3.068,0.076 -4.425,0.178c-1.356,0.101 -2.492,0.322 -3.407,0.661c-0.068,-0.153 -0.102,-0.314 -0.102,-0.483c-0,-0.407 0.195,-0.785 0.585,-1.132c0.39,-0.348 0.936,-0.657 1.64,-0.928c0.704,-0.272 1.551,-0.492 2.543,-0.662c0.992,-0.169 2.09,-0.279 3.294,-0.33c0.067,-1.594 0.152,-3.116 0.254,-4.565c0.102,-1.45 0.233,-2.882 0.394,-4.298c0.161,-1.416 0.36,-2.836 0.598,-4.26c0.237,-1.424 0.534,-2.899 0.89,-4.425c0.458,-1.983 1.051,-3.768 1.78,-5.353c0.729,-1.585 1.555,-2.992 2.479,-4.222c0.924,-1.229 1.925,-2.284 3.001,-3.166c1.077,-0.881 2.183,-1.606 3.319,-2.174c1.136,-0.568 2.289,-0.984 3.459,-1.246c1.17,-0.263 2.314,-0.395 3.433,-0.395c1.645,0 3.107,0.217 4.387,0.649c1.28,0.432 2.365,1 3.255,1.704c0.89,0.703 1.568,1.496 2.035,2.378c0.466,0.881 0.699,1.78 0.699,2.695c0,0.712 -0.114,1.348 -0.343,1.908c-0.229,0.559 -0.543,1.03 -0.941,1.411c-0.399,0.382 -0.861,0.674 -1.386,0.878c-0.526,0.203 -1.085,0.305 -1.679,0.305c-0.78,-0 -1.602,-0.195 -2.467,-0.585l-0.101,-0.28c0.322,-0.746 0.563,-1.399 0.725,-1.958c0.161,-0.56 0.241,-1.136 0.241,-1.729c0,-0.814 -0.165,-1.514 -0.496,-2.099c-0.33,-0.584 -0.763,-1.063 -1.297,-1.436c-0.534,-0.373 -1.127,-0.645 -1.78,-0.814c-0.653,-0.17 -1.301,-0.255 -1.945,-0.255c-1.899,0 -3.506,0.424 -4.82,1.272c-1.314,0.848 -2.407,2.013 -3.28,3.497c-0.874,1.483 -1.564,3.23 -2.073,5.239c-0.509,2.009 -0.894,4.175 -1.157,6.497c-0.263,2.323 -0.449,4.752 -0.56,7.286c-0.11,2.535 -0.207,5.066 -0.292,7.592Z" style="fill:#8446b4;fill-rule:nonzero;"/><path d="M506.961,54.448c-0,-1.712 0.178,-3.45 0.534,-5.213c0.356,-1.763 0.881,-3.471 1.576,-5.124c0.695,-1.653 1.556,-3.205 2.582,-4.654c1.025,-1.45 2.208,-2.717 3.547,-3.802c1.34,-1.085 2.832,-1.942 4.476,-2.569c1.645,-0.627 3.433,-0.941 5.366,-0.941c2.17,0 4.09,0.458 5.76,1.373c1.67,0.916 3.073,2.124 4.209,3.624c1.136,1.501 1.997,3.209 2.582,5.125c0.584,1.916 0.877,3.874 0.877,5.874c-0,1.713 -0.178,3.451 -0.534,5.214c-0.356,1.763 -0.886,3.471 -1.59,5.124c-0.703,1.653 -1.568,3.205 -2.594,4.654c-1.025,1.45 -2.208,2.717 -3.547,3.802c-1.34,1.085 -2.832,1.941 -4.476,2.569c-1.645,0.627 -3.433,0.941 -5.366,0.941c-2.17,-0 -4.09,-0.458 -5.76,-1.374c-1.67,-0.915 -3.069,-2.123 -4.197,-3.624c-1.127,-1.5 -1.983,-3.208 -2.568,-5.124c-0.585,-1.916 -0.877,-3.874 -0.877,-5.875Zm6.078,-2.416c-0,1.153 0.089,2.323 0.267,3.51c0.178,1.187 0.453,2.331 0.826,3.433c0.373,1.102 0.835,2.132 1.386,3.09c0.551,0.958 1.204,1.793 1.958,2.505c0.755,0.712 1.603,1.272 2.544,1.679c0.94,0.406 1.979,0.61 3.115,0.61c1.238,-0 2.327,-0.267 3.268,-0.801c0.941,-0.534 1.755,-1.242 2.441,-2.124c0.687,-0.881 1.255,-1.89 1.704,-3.026c0.449,-1.136 0.81,-2.31 1.081,-3.522c0.271,-1.212 0.462,-2.412 0.572,-3.599c0.11,-1.187 0.165,-2.28 0.165,-3.28c0,-1.17 -0.089,-2.344 -0.267,-3.523c-0.178,-1.178 -0.453,-2.314 -0.826,-3.407c-0.373,-1.094 -0.835,-2.12 -1.386,-3.078c-0.551,-0.958 -1.204,-1.788 -1.958,-2.492c-0.755,-0.703 -1.603,-1.259 -2.543,-1.666c-0.941,-0.407 -1.98,-0.61 -3.116,-0.61c-1.237,-0 -2.327,0.263 -3.268,0.788c-0.941,0.526 -1.754,1.23 -2.441,2.111c-0.687,0.882 -1.255,1.891 -1.704,3.026c-0.449,1.136 -0.81,2.306 -1.081,3.51c-0.271,1.204 -0.462,2.403 -0.572,3.599c-0.11,1.195 -0.165,2.284 -0.165,3.267Z" style="fill:#8446b4;fill-rule:nonzero;"/><path d="M554.67,37.231c-0,1.153 -0.038,2.387 -0.115,3.701c-0.076,1.314 -0.169,2.649 -0.279,4.005c-0.111,1.356 -0.229,2.709 -0.357,4.056c-0.127,1.348 -0.245,2.624 -0.356,3.828c-0.11,1.204 -0.203,2.31 -0.279,3.319c-0.077,1.008 -0.115,1.852 -0.115,2.53c0,2.018 0.382,3.493 1.145,4.425c0.763,0.933 1.78,1.399 3.051,1.399c1.442,-0 2.917,-0.776 4.425,-2.327c1.509,-1.551 2.95,-3.819 4.324,-6.803c1.373,-2.984 2.543,-6.337 3.509,-10.058c0.967,-3.722 1.586,-7.735 1.857,-12.042l5.391,-0.661l0.407,0.025c-0.152,1.611 -0.292,3.319 -0.419,5.125c-0.128,1.805 -0.242,3.611 -0.344,5.417c-0.102,1.805 -0.178,3.573 -0.229,5.302c-0.051,1.729 -0.076,3.323 -0.076,4.781c0,2.764 0.161,5.023 0.483,6.778c0.322,1.754 0.738,3.136 1.246,4.145c0.509,1.009 1.09,1.704 1.742,2.085c0.653,0.382 1.31,0.572 1.971,0.572c0.39,0 0.776,-0.05 1.157,-0.152c0.382,-0.102 0.742,-0.225 1.081,-0.369c0.339,-0.144 0.649,-0.301 0.929,-0.47c0.279,-0.17 0.521,-0.322 0.724,-0.458l0.84,1.17c-0.492,0.508 -1.052,0.987 -1.679,1.437c-0.627,0.449 -1.288,0.839 -1.984,1.169c-0.695,0.331 -1.424,0.59 -2.187,0.776c-0.763,0.187 -1.534,0.28 -2.314,0.28c-0.983,-0 -1.937,-0.195 -2.861,-0.585c-0.924,-0.39 -1.742,-1.043 -2.454,-1.958c-0.712,-0.916 -1.284,-2.137 -1.717,-3.662c-0.432,-1.526 -0.648,-3.425 -0.648,-5.697c-0,-0.729 0.017,-1.467 0.051,-2.213c0.034,-0.746 0.084,-1.534 0.152,-2.365c0.068,-0.83 0.157,-1.725 0.267,-2.683c0.111,-0.958 0.242,-2.013 0.395,-3.166l-0.28,-0.051c-1.153,4.256 -2.404,7.825 -3.751,10.707c-1.348,2.882 -2.73,5.205 -4.146,6.968c-1.415,1.763 -2.835,3.022 -4.259,3.777c-1.425,0.754 -2.781,1.131 -4.069,1.131c-0.967,0 -1.895,-0.165 -2.785,-0.496c-0.89,-0.33 -1.683,-0.873 -2.378,-1.627c-0.695,-0.755 -1.25,-1.751 -1.666,-2.988c-0.415,-1.238 -0.623,-2.764 -0.623,-4.578c0,-1.187 0.068,-2.564 0.204,-4.133c0.135,-1.568 0.284,-3.238 0.445,-5.01c0.161,-1.771 0.309,-3.602 0.445,-5.493c0.135,-1.89 0.203,-3.759 0.203,-5.607c0,-0.746 -0.025,-1.391 -0.076,-1.933c-0.051,-0.543 -0.161,-0.992 -0.331,-1.348c-0.169,-0.356 -0.419,-0.619 -0.75,-0.788c-0.331,-0.17 -0.784,-0.255 -1.36,-0.255c-0.577,0 -1.327,0.085 -2.251,0.255c-0.924,0.169 -1.895,0.398 -2.912,0.686l-0.382,-1.831c1.391,-0.491 2.683,-0.92 3.879,-1.284c1.195,-0.365 2.263,-0.666 3.204,-0.903c0.941,-0.237 1.738,-0.415 2.391,-0.534c0.652,-0.119 1.131,-0.178 1.437,-0.178c0.61,0 1.11,0.11 1.5,0.331c0.39,0.22 0.704,0.542 0.941,0.966c0.237,0.424 0.403,0.933 0.496,1.526c0.093,0.593 0.14,1.272 0.14,2.034Z" style="fill:#8446b4;fill-rule:nonzero;"/><path d="M592.283,39.825c-0,-0.695 -0.051,-1.28 -0.153,-1.754c-0.102,-0.475 -0.259,-0.852 -0.47,-1.132c-0.212,-0.28 -0.479,-0.479 -0.802,-0.598c-0.322,-0.118 -0.703,-0.178 -1.144,-0.178c-0.61,0 -1.339,0.085 -2.187,0.255c-0.848,0.169 -1.814,0.398 -2.899,0.686l-0.382,-1.831c1.204,-0.424 2.361,-0.809 3.472,-1.157c1.11,-0.347 2.132,-0.648 3.064,-0.903c0.933,-0.254 1.755,-0.449 2.467,-0.585c0.712,-0.135 1.272,-0.203 1.678,-0.203c0.984,-0 1.751,0.292 2.302,0.877c0.551,0.585 0.827,1.59 0.827,3.014c-0,0.169 -0.017,0.564 -0.051,1.182c-0.034,0.619 -0.081,1.403 -0.14,2.353c-0.06,0.949 -0.132,2.039 -0.216,3.268c-0.085,1.229 -0.183,2.539 -0.293,3.929c-0.11,1.39 -0.233,2.827 -0.369,4.311c-0.135,1.483 -0.279,2.962 -0.432,4.437l0.153,0.026c1.288,-4.374 2.67,-8.066 4.145,-11.076c1.475,-3.009 2.975,-5.45 4.501,-7.324c1.526,-1.873 3.044,-3.225 4.553,-4.056c1.508,-0.831 2.95,-1.246 4.323,-1.246c0.949,-0 1.865,0.178 2.746,0.534c0.882,0.356 1.666,0.924 2.353,1.704c0.686,0.78 1.233,1.784 1.64,3.013c0.407,1.229 0.61,2.717 0.61,4.464c0,0.508 -0.029,1.191 -0.089,2.047c-0.059,0.856 -0.131,1.81 -0.216,2.861c-0.084,1.051 -0.182,2.166 -0.292,3.344c-0.11,1.178 -0.208,2.335 -0.293,3.471c-0.084,1.136 -0.156,2.217 -0.216,3.243c-0.059,1.026 -0.089,1.92 -0.089,2.683c0,1.322 0.055,2.399 0.166,3.23c0.11,0.83 0.292,1.487 0.546,1.971c0.255,0.483 0.594,0.813 1.018,0.991c0.423,0.178 0.941,0.267 1.551,0.267c0.881,0 1.797,-0.123 2.746,-0.368c0.95,-0.246 1.908,-0.59 2.874,-1.03l0.483,1.322c-0.61,0.492 -1.381,0.992 -2.314,1.501c-0.932,0.508 -1.911,0.974 -2.937,1.398c-1.026,0.424 -2.047,0.767 -3.065,1.03c-1.017,0.263 -1.915,0.394 -2.695,0.394c-0.916,0 -1.636,-0.245 -2.162,-0.737c-0.526,-0.492 -0.92,-1.161 -1.183,-2.009c-0.262,-0.848 -0.432,-1.84 -0.508,-2.976c-0.077,-1.136 -0.115,-2.356 -0.115,-3.662c0,-1.593 0.055,-3.234 0.166,-4.921c0.11,-1.687 0.233,-3.293 0.368,-4.819c0.136,-1.526 0.259,-2.912 0.369,-4.158c0.11,-1.246 0.165,-2.242 0.165,-2.988c0,-1.984 -0.373,-3.446 -1.119,-4.387c-0.746,-0.941 -1.737,-1.411 -2.975,-1.411c-0.983,-0 -2.018,0.415 -3.103,1.246c-1.085,0.83 -2.166,1.971 -3.242,3.42c-1.077,1.45 -2.111,3.162 -3.103,5.137c-0.992,1.975 -1.886,4.112 -2.683,6.409c-0.797,2.297 -1.458,4.701 -1.983,7.21c-0.526,2.509 -0.857,5.018 -0.992,7.527l-5.315,0.662l-0.407,-0.026c0.135,-1.61 0.263,-3.365 0.381,-5.264c0.119,-1.899 0.229,-3.827 0.331,-5.786c0.102,-1.958 0.191,-3.899 0.267,-5.823c0.076,-1.925 0.144,-3.722 0.203,-5.392c0.06,-1.67 0.102,-3.166 0.127,-4.489c0.026,-1.322 0.039,-2.365 0.039,-3.128Z" style="fill:#8446b4;fill-rule:nonzero;"/><path d="M669.085,0.814c-0.61,4.306 -1.195,8.714 -1.755,13.224c-0.559,4.51 -1.051,9.003 -1.475,13.479c-0.423,4.476 -0.763,8.884 -1.017,13.224c-0.254,4.34 -0.381,8.503 -0.381,12.487c-0,1.916 0.021,3.56 0.063,4.933c0.043,1.374 0.11,2.535 0.204,3.485c0.093,0.949 0.22,1.703 0.381,2.263c0.161,0.559 0.365,0.992 0.611,1.297c0.245,0.305 0.529,0.504 0.851,0.598c0.323,0.093 0.704,0.139 1.145,0.139c0.814,0 1.691,-0.123 2.632,-0.368c0.941,-0.246 1.895,-0.59 2.861,-1.03l0.483,1.322c-0.61,0.492 -1.377,0.992 -2.301,1.501c-0.924,0.508 -1.895,0.974 -2.912,1.398c-1.017,0.424 -2.013,0.767 -2.988,1.03c-0.975,0.263 -1.819,0.394 -2.531,0.394c-0.525,0 -0.983,-0.059 -1.373,-0.178c-0.39,-0.118 -0.725,-0.326 -1.005,-0.623c-0.279,-0.296 -0.517,-0.691 -0.712,-1.182c-0.195,-0.492 -0.351,-1.119 -0.47,-1.882c-0.153,-1.017 -0.276,-2.204 -0.369,-3.561c-0.093,-1.356 -0.14,-2.831 -0.14,-4.425c0,-1.695 0.064,-3.42 0.191,-5.175c0.127,-1.755 0.335,-3.505 0.623,-5.251l-0.229,-0.051c-1.305,3.441 -2.725,6.553 -4.26,9.333c-1.534,2.781 -3.115,5.154 -4.743,7.121c-1.627,1.966 -3.263,3.48 -4.908,4.539c-1.644,1.06 -3.221,1.59 -4.73,1.59c-1.526,-0 -2.84,-0.386 -3.942,-1.157c-1.102,-0.772 -2.005,-1.789 -2.708,-3.052c-0.704,-1.263 -1.225,-2.713 -1.564,-4.349c-0.339,-1.636 -0.509,-3.319 -0.509,-5.048c0,-2.085 0.229,-4.141 0.687,-6.167c0.457,-2.026 1.114,-3.946 1.971,-5.76c0.856,-1.814 1.886,-3.497 3.09,-5.048c1.203,-1.552 2.551,-2.887 4.043,-4.006c1.492,-1.119 3.107,-1.996 4.845,-2.632c1.738,-0.636 3.564,-0.954 5.48,-0.954c1.34,0 2.675,0.17 4.006,0.509c1.331,0.339 2.657,0.899 3.98,1.678c0.084,-2.882 0.19,-5.811 0.318,-8.786c0.127,-2.976 0.275,-5.87 0.445,-8.685c0.169,-2.814 0.356,-5.476 0.559,-7.985c0.204,-2.51 0.424,-4.747 0.661,-6.714c0.051,-0.407 0.187,-0.759 0.407,-1.056c0.221,-0.296 0.5,-0.534 0.839,-0.712c0.34,-0.178 0.721,-0.309 1.145,-0.394c0.424,-0.085 0.856,-0.127 1.297,-0.127c1.017,0 2.085,0.271 3.204,0.814Zm-9.13,35.833c-2.288,-1.086 -4.56,-1.628 -6.815,-1.628c-1.645,-0 -3.158,0.263 -4.54,0.788c-1.382,0.526 -2.623,1.251 -3.725,2.175c-1.102,0.924 -2.069,2.009 -2.9,3.255c-0.83,1.246 -1.517,2.585 -2.06,4.018c-0.542,1.433 -0.953,2.92 -1.233,4.463c-0.28,1.543 -0.42,3.077 -0.42,4.603c0,0.543 0.026,1.166 0.077,1.869c0.051,0.704 0.148,1.433 0.292,2.188c0.144,0.754 0.335,1.492 0.572,2.212c0.238,0.721 0.534,1.369 0.89,1.946c0.357,0.576 0.785,1.038 1.285,1.386c0.5,0.347 1.089,0.521 1.767,0.521c1.221,-0 2.467,-0.458 3.739,-1.373c1.271,-0.916 2.513,-2.128 3.725,-3.637c1.213,-1.509 2.357,-3.238 3.434,-5.188c1.076,-1.95 2.034,-3.955 2.873,-6.015c0.84,-2.059 1.526,-4.094 2.06,-6.103c0.534,-2.009 0.861,-3.836 0.979,-5.48Z" style="fill:#8446b4;fill-rule:nonzero;"/><path d="M702.019,61.188c0.101,0.051 0.233,0.123 0.394,0.216c0.161,0.093 0.309,0.195 0.445,0.305c0.136,0.11 0.254,0.229 0.356,0.356c0.102,0.127 0.153,0.25 0.153,0.369c-0,0.068 -0.026,0.136 -0.077,0.203c-0.949,1.323 -1.971,2.471 -3.064,3.446c-1.094,0.975 -2.23,1.789 -3.408,2.442c-1.178,0.652 -2.378,1.136 -3.598,1.449c-1.221,0.314 -2.425,0.471 -3.612,0.471c-2.034,-0 -3.899,-0.416 -5.595,-1.246c-1.695,-0.831 -3.153,-1.967 -4.374,-3.408c-1.221,-1.441 -2.174,-3.132 -2.861,-5.074c-0.686,-1.941 -1.03,-4.022 -1.03,-6.243c0,-1.814 0.199,-3.628 0.598,-5.442c0.398,-1.815 0.975,-3.544 1.729,-5.188c0.755,-1.645 1.674,-3.175 2.759,-4.591c1.086,-1.415 2.319,-2.645 3.701,-3.687c1.381,-1.043 2.899,-1.861 4.552,-2.454c1.653,-0.594 3.429,-0.891 5.328,-0.891c1.254,0 2.45,0.17 3.586,0.509c1.136,0.339 2.132,0.827 2.988,1.462c0.856,0.636 1.538,1.42 2.047,2.353c0.509,0.932 0.763,1.992 0.763,3.179c-0,1.729 -0.564,3.238 -1.691,4.526c-1.128,1.289 -2.683,2.383 -4.667,3.281c-1.984,0.899 -4.319,1.623 -7.006,2.175c-2.687,0.551 -5.591,0.962 -8.71,1.233l-0,0.432c-0,2.17 0.275,4.154 0.826,5.951c0.551,1.797 1.31,3.336 2.276,4.616c0.967,1.28 2.102,2.276 3.408,2.988c1.305,0.712 2.713,1.068 4.222,1.068c1.525,0 3.089,-0.377 4.692,-1.131c1.602,-0.755 3.225,-1.98 4.87,-3.675Zm-4.781,-20.422c-0,-0.779 -0.132,-1.509 -0.395,-2.187c-0.262,-0.678 -0.627,-1.267 -1.093,-1.767c-0.466,-0.5 -1.022,-0.895 -1.666,-1.183c-0.644,-0.288 -1.339,-0.432 -2.085,-0.432c-1.102,-0 -2.103,0.195 -3.001,0.585c-0.899,0.39 -1.704,0.92 -2.416,1.589c-0.712,0.67 -1.339,1.45 -1.882,2.34c-0.543,0.89 -1.005,1.835 -1.386,2.836c-0.381,1 -0.691,2.026 -0.928,3.077c-0.238,1.051 -0.407,2.077 -0.509,3.077c2.408,-0.17 4.565,-0.462 6.472,-0.877c1.908,-0.416 3.518,-0.95 4.832,-1.603c1.314,-0.652 2.319,-1.432 3.014,-2.339c0.695,-0.907 1.043,-1.946 1.043,-3.116Z" style="fill:#8446b4;fill-rule:nonzero;"/><path d="M744.718,0.814c-0.61,4.306 -1.195,8.714 -1.755,13.224c-0.559,4.51 -1.051,9.003 -1.475,13.479c-0.424,4.476 -0.763,8.884 -1.017,13.224c-0.254,4.34 -0.382,8.503 -0.382,12.487c0,1.916 0.022,3.56 0.064,4.933c0.042,1.374 0.11,2.535 0.203,3.485c0.094,0.949 0.221,1.703 0.382,2.263c0.161,0.559 0.364,0.992 0.61,1.297c0.246,0.305 0.53,0.504 0.852,0.598c0.322,0.093 0.704,0.139 1.145,0.139c0.813,0 1.691,-0.123 2.632,-0.368c0.941,-0.246 1.894,-0.59 2.861,-1.03l0.483,1.322c-0.61,0.492 -1.378,0.992 -2.302,1.501c-0.924,0.508 -1.894,0.974 -2.911,1.398c-1.018,0.424 -2.014,0.767 -2.989,1.03c-0.974,0.263 -1.818,0.394 -2.53,0.394c-0.526,0 -0.983,-0.059 -1.373,-0.178c-0.39,-0.118 -0.725,-0.326 -1.005,-0.623c-0.28,-0.296 -0.517,-0.691 -0.712,-1.182c-0.195,-0.492 -0.352,-1.119 -0.47,-1.882c-0.153,-1.017 -0.276,-2.204 -0.369,-3.561c-0.093,-1.356 -0.14,-2.831 -0.14,-4.425c-0,-1.695 0.064,-3.42 0.191,-5.175c0.127,-1.755 0.335,-3.505 0.623,-5.251l-0.229,-0.051c-1.306,3.441 -2.726,6.553 -4.26,9.333c-1.534,2.781 -3.115,5.154 -4.743,7.121c-1.627,1.966 -3.263,3.48 -4.908,4.539c-1.645,1.06 -3.221,1.59 -4.73,1.59c-1.526,-0 -2.84,-0.386 -3.942,-1.157c-1.102,-0.772 -2.005,-1.789 -2.709,-3.052c-0.703,-1.263 -1.225,-2.713 -1.564,-4.349c-0.339,-1.636 -0.508,-3.319 -0.508,-5.048c-0,-2.085 0.229,-4.141 0.686,-6.167c0.458,-2.026 1.115,-3.946 1.971,-5.76c0.857,-1.814 1.887,-3.497 3.09,-5.048c1.204,-1.552 2.552,-2.887 4.044,-4.006c1.492,-1.119 3.107,-1.996 4.845,-2.632c1.737,-0.636 3.564,-0.954 5.48,-0.954c1.339,0 2.674,0.17 4.005,0.509c1.331,0.339 2.658,0.899 3.98,1.678c0.085,-2.882 0.191,-5.811 0.318,-8.786c0.127,-2.976 0.276,-5.87 0.445,-8.685c0.17,-2.814 0.356,-5.476 0.56,-7.985c0.203,-2.51 0.424,-4.747 0.661,-6.714c0.051,-0.407 0.187,-0.759 0.407,-1.056c0.22,-0.296 0.5,-0.534 0.839,-0.712c0.339,-0.178 0.721,-0.309 1.145,-0.394c0.423,-0.085 0.856,-0.127 1.297,-0.127c1.017,0 2.085,0.271 3.204,0.814Zm-9.13,35.833c-2.289,-1.086 -4.561,-1.628 -6.816,-1.628c-1.644,-0 -3.157,0.263 -4.539,0.788c-1.382,0.526 -2.624,1.251 -3.726,2.175c-1.102,0.924 -2.068,2.009 -2.899,3.255c-0.831,1.246 -1.517,2.585 -2.06,4.018c-0.542,1.433 -0.953,2.92 -1.233,4.463c-0.28,1.543 -0.42,3.077 -0.42,4.603c0,0.543 0.026,1.166 0.076,1.869c0.051,0.704 0.149,1.433 0.293,2.188c0.144,0.754 0.335,1.492 0.572,2.212c0.237,0.721 0.534,1.369 0.89,1.946c0.356,0.576 0.784,1.038 1.284,1.386c0.501,0.347 1.09,0.521 1.768,0.521c1.221,-0 2.467,-0.458 3.738,-1.373c1.272,-0.916 2.514,-2.128 3.726,-3.637c1.212,-1.509 2.357,-3.238 3.433,-5.188c1.077,-1.95 2.035,-3.955 2.874,-6.015c0.839,-2.059 1.526,-4.094 2.06,-6.103c0.534,-2.009 0.86,-3.836 0.979,-5.48Z" style="fill:#8446b4;fill-rule:nonzero;"/><path d="M777.855,21.795c-0.593,-0 -1.119,-0.123 -1.577,-0.369c-0.458,-0.246 -0.848,-0.568 -1.17,-0.967c-0.322,-0.398 -0.568,-0.856 -0.737,-1.373c-0.17,-0.517 -0.254,-1.047 -0.254,-1.589c-0,-0.763 0.127,-1.437 0.381,-2.022c0.254,-0.585 0.585,-1.077 0.992,-1.475c0.407,-0.398 0.856,-0.695 1.348,-0.89c0.491,-0.195 0.975,-0.293 1.449,-0.293c0.577,0 1.094,0.106 1.552,0.318c0.457,0.212 0.852,0.505 1.182,0.878c0.331,0.373 0.585,0.801 0.763,1.284c0.178,0.483 0.267,1.004 0.267,1.564c0,0.593 -0.102,1.183 -0.305,1.767c-0.204,0.585 -0.488,1.115 -0.852,1.59c-0.365,0.475 -0.805,0.856 -1.322,1.144c-0.518,0.289 -1.09,0.433 -1.717,0.433Zm2.212,11.495c-0.288,1.932 -0.534,3.869 -0.737,5.811c-0.204,1.941 -0.369,3.819 -0.496,5.633c-0.127,1.814 -0.22,3.53 -0.28,5.15c-0.059,1.619 -0.089,3.081 -0.089,4.386c0,1.764 0.026,3.277 0.077,4.54c0.05,1.263 0.135,2.327 0.254,3.192c0.119,0.864 0.267,1.555 0.445,2.072c0.178,0.517 0.398,0.916 0.661,1.195c0.263,0.28 0.568,0.462 0.916,0.547c0.347,0.085 0.741,0.127 1.182,0.127c0.814,0 1.691,-0.123 2.632,-0.368c0.941,-0.246 1.895,-0.59 2.861,-1.03l0.484,1.322c-0.611,0.492 -1.378,0.992 -2.302,1.501c-0.924,0.508 -1.895,0.974 -2.912,1.398c-1.017,0.424 -2.013,0.767 -2.988,1.03c-0.975,0.263 -1.818,0.394 -2.53,0.394c-0.475,0 -0.907,-0.038 -1.297,-0.114c-0.39,-0.076 -0.742,-0.267 -1.056,-0.572c-0.313,-0.305 -0.593,-0.755 -0.839,-1.348c-0.246,-0.593 -0.449,-1.399 -0.61,-2.416c-0.161,-1.017 -0.284,-2.289 -0.369,-3.815c-0.085,-1.526 -0.127,-3.374 -0.127,-5.544c-0,-1.271 0.012,-2.708 0.038,-4.31c0.025,-1.603 0.063,-3.323 0.114,-5.163c0.051,-1.839 0.119,-3.781 0.204,-5.824c0.084,-2.043 0.195,-4.149 0.33,-6.319c0.034,-0.475 0.161,-0.861 0.382,-1.158c0.22,-0.296 0.491,-0.525 0.814,-0.686c0.322,-0.161 0.665,-0.271 1.03,-0.331c0.364,-0.059 0.699,-0.089 1.004,-0.089c1.136,0 2.204,0.263 3.204,0.789Z" style="fill:#8446b4;fill-rule:nonzero;"/><path d="M794.843,39.825c0,-0.695 -0.051,-1.28 -0.153,-1.754c-0.101,-0.475 -0.258,-0.852 -0.47,-1.132c-0.212,-0.28 -0.479,-0.479 -0.801,-0.598c-0.322,-0.118 -0.704,-0.178 -1.145,-0.178c-0.61,0 -1.339,0.085 -2.187,0.255c-0.847,0.169 -1.814,0.398 -2.899,0.686l-0.381,-1.831c1.203,-0.424 2.361,-0.809 3.471,-1.157c1.111,-0.347 2.132,-0.648 3.065,-0.903c0.932,-0.254 1.754,-0.449 2.466,-0.585c0.713,-0.135 1.272,-0.203 1.679,-0.203c0.983,-0 1.75,0.292 2.301,0.877c0.551,0.585 0.827,1.59 0.827,3.014c-0,0.169 -0.017,0.564 -0.051,1.182c-0.034,0.619 -0.08,1.403 -0.14,2.353c-0.059,0.949 -0.131,2.039 -0.216,3.268c-0.085,1.229 -0.182,2.539 -0.292,3.929c-0.111,1.39 -0.234,2.827 -0.369,4.311c-0.136,1.483 -0.28,2.962 -0.433,4.437l0.153,0.026c1.289,-4.374 2.67,-8.066 4.145,-11.076c1.475,-3.009 2.976,-5.45 4.502,-7.324c1.526,-1.873 3.043,-3.225 4.552,-4.056c1.509,-0.831 2.95,-1.246 4.323,-1.246c0.95,-0 1.865,0.178 2.747,0.534c0.881,0.356 1.666,0.924 2.352,1.704c0.687,0.78 1.234,1.784 1.641,3.013c0.406,1.229 0.61,2.717 0.61,4.464c-0,0.508 -0.03,1.191 -0.089,2.047c-0.059,0.856 -0.131,1.81 -0.216,2.861c-0.085,1.051 -0.183,2.166 -0.293,3.344c-0.11,1.178 -0.207,2.335 -0.292,3.471c-0.085,1.136 -0.157,2.217 -0.216,3.243c-0.06,1.026 -0.089,1.92 -0.089,2.683c-0,1.322 0.055,2.399 0.165,3.23c0.11,0.83 0.292,1.487 0.547,1.971c0.254,0.483 0.593,0.813 1.017,0.991c0.424,0.178 0.941,0.267 1.551,0.267c0.882,0 1.797,-0.123 2.747,-0.368c0.949,-0.246 1.907,-0.59 2.874,-1.03l0.483,1.322c-0.611,0.492 -1.382,0.992 -2.314,1.501c-0.933,0.508 -1.912,0.974 -2.938,1.398c-1.025,0.424 -2.047,0.767 -3.064,1.03c-1.017,0.263 -1.916,0.394 -2.696,0.394c-0.915,0 -1.636,-0.245 -2.162,-0.737c-0.525,-0.492 -0.919,-1.161 -1.182,-2.009c-0.263,-0.848 -0.433,-1.84 -0.509,-2.976c-0.076,-1.136 -0.114,-2.356 -0.114,-3.662c-0,-1.593 0.055,-3.234 0.165,-4.921c0.11,-1.687 0.233,-3.293 0.369,-4.819c0.135,-1.526 0.258,-2.912 0.369,-4.158c0.11,-1.246 0.165,-2.242 0.165,-2.988c-0,-1.984 -0.373,-3.446 -1.119,-4.387c-0.746,-0.941 -1.738,-1.411 -2.976,-1.411c-0.983,-0 -2.017,0.415 -3.102,1.246c-1.085,0.83 -2.166,1.971 -3.243,3.42c-1.076,1.45 -2.11,3.162 -3.102,5.137c-0.992,1.975 -1.886,4.112 -2.683,6.409c-0.797,2.297 -1.458,4.701 -1.984,7.21c-0.526,2.509 -0.856,5.018 -0.992,7.527l-5.315,0.662l-0.407,-0.026c0.136,-1.61 0.263,-3.365 0.382,-5.264c0.118,-1.899 0.229,-3.827 0.33,-5.786c0.102,-1.958 0.191,-3.899 0.267,-5.823c0.077,-1.925 0.144,-3.722 0.204,-5.392c0.059,-1.67 0.101,-3.166 0.127,-4.489c0.025,-1.322 0.038,-2.365 0.038,-3.128Z" style="fill:#8446b4;fill-rule:nonzero;"/><path d="M849.546,36.112c2.136,-0.712 4.107,-1.335 5.913,-1.869c1.805,-0.534 3.399,-0.979 4.781,-1.335c1.381,-0.356 2.517,-0.623 3.407,-0.801c0.891,-0.178 1.488,-0.267 1.793,-0.267c0.628,0 1.09,0.182 1.386,0.547c0.297,0.364 0.445,0.843 0.445,1.437c0,0.135 -0.012,0.491 -0.038,1.068l-0.279,5.175c-0.06,1.111 -0.123,2.255 -0.191,3.433c-0.068,1.179 -0.132,2.361 -0.191,3.548l-0.407,8.062c-0.076,1.61 -0.148,3.212 -0.216,4.806c-0.068,1.594 -0.123,3.162 -0.165,4.705c-0.043,1.543 -0.072,3.026 -0.089,4.45l-5.544,0.662l-0.407,-0.026c0.101,-1.136 0.195,-2.356 0.279,-3.662c0.085,-1.305 0.166,-2.59 0.242,-3.853c0.076,-1.263 0.14,-2.445 0.191,-3.547c0.051,-1.102 0.093,-2.018 0.127,-2.747c0.085,-2.221 0.182,-4.747 0.292,-7.579c0.111,-2.831 0.166,-5.942 0.166,-9.333c-0,-0.966 -0.149,-1.666 -0.445,-2.098c-0.297,-0.432 -0.776,-0.648 -1.437,-0.648c-0.678,-0 -1.793,0.139 -3.344,0.419c-1.552,0.28 -3.472,0.742 -5.761,1.386l-0.508,-1.933Z" style="fill:#8446b4;fill-rule:nonzero;"/><path d="M901.731,59.484c0.135,0.22 0.25,0.436 0.343,0.648c0.093,0.212 0.14,0.411 0.14,0.598c0,0.526 -0.398,1.017 -1.195,1.475c-1.543,0.865 -3.124,1.479 -4.743,1.844c-1.619,0.364 -3.217,0.547 -4.794,0.547c-1.916,-0 -3.747,-0.344 -5.493,-1.03c-1.746,-0.687 -3.285,-1.679 -4.616,-2.976c-1.331,-1.297 -2.39,-2.882 -3.179,-4.756c-0.788,-1.873 -1.182,-3.997 -1.182,-6.37c-0,-1.984 0.233,-3.802 0.699,-5.455c0.466,-1.653 1.106,-3.145 1.92,-4.476c0.814,-1.331 1.78,-2.497 2.899,-3.497c1.119,-1 2.323,-1.835 3.611,-2.505c1.289,-0.67 2.645,-1.174 4.069,-1.513c1.425,-0.339 2.857,-0.509 4.298,-0.509c1.408,0 2.798,0.187 4.171,0.56c1.373,0.373 2.679,0.954 3.917,1.742c1.237,0.788 2.382,1.784 3.433,2.988c1.051,1.204 1.962,2.641 2.734,4.311c0.771,1.67 1.377,3.577 1.818,5.722c0.441,2.144 0.661,4.539 0.661,7.184c0,1.831 -0.114,3.713 -0.343,5.646c-0.229,1.933 -0.585,3.861 -1.068,5.785c-0.483,1.925 -1.09,3.811 -1.819,5.659c-0.729,1.848 -1.589,3.598 -2.581,5.252c-0.992,1.653 -2.123,3.174 -3.395,4.564c-1.272,1.391 -2.683,2.59 -4.234,3.599c-1.552,1.009 -3.247,1.797 -5.087,2.365c-1.839,0.568 -3.835,0.852 -5.989,0.852c-1.712,0 -3.234,-0.178 -4.565,-0.534c-1.33,-0.356 -2.454,-0.814 -3.369,-1.373c-0.916,-0.56 -1.615,-1.183 -2.098,-1.87c-0.483,-0.686 -0.725,-1.36 -0.725,-2.021c-0,-0.339 0.059,-0.691 0.178,-1.056c0.119,-0.364 0.309,-0.703 0.572,-1.017c0.263,-0.314 0.611,-0.598 1.043,-0.852c0.432,-0.254 0.962,-0.441 1.589,-0.559c0.746,1.051 1.543,1.903 2.391,2.555c0.848,0.653 1.712,1.17 2.594,1.552c0.881,0.381 1.772,0.64 2.67,0.775c0.899,0.136 1.772,0.204 2.62,0.204c2.56,-0 4.781,-0.632 6.663,-1.895c1.881,-1.263 3.441,-3.06 4.679,-5.391c1.238,-2.331 2.153,-5.142 2.746,-8.431c0.594,-3.289 0.891,-6.968 0.891,-11.037c-0,-3.984 -0.314,-7.371 -0.941,-10.16c-0.628,-2.789 -1.467,-5.056 -2.518,-6.803c-1.051,-1.746 -2.255,-3.013 -3.611,-3.802c-1.357,-0.788 -2.755,-1.182 -4.196,-1.182c-1.509,-0 -2.874,0.263 -4.095,0.788c-1.221,0.526 -2.255,1.297 -3.103,2.315c-0.847,1.017 -1.5,2.28 -1.958,3.789c-0.458,1.509 -0.686,3.238 -0.686,5.188c-0,1.051 0.101,2.136 0.305,3.255c0.203,1.119 0.508,2.213 0.915,3.281c0.407,1.068 0.92,2.077 1.539,3.026c0.619,0.949 1.344,1.78 2.174,2.492c0.831,0.712 1.768,1.276 2.81,1.691c1.043,0.416 2.192,0.623 3.446,0.623c1.17,0 2.332,-0.139 3.484,-0.419c1.153,-0.28 2.34,-0.742 3.561,-1.386Z" style="fill:#8446b4;fill-rule:nonzero;"/><path d="M943.158,59.484c0.136,0.22 0.251,0.436 0.344,0.648c0.093,0.212 0.14,0.411 0.14,0.598c-0,0.526 -0.399,1.017 -1.196,1.475c-1.542,0.865 -3.123,1.479 -4.743,1.844c-1.619,0.364 -3.217,0.547 -4.793,0.547c-1.916,-0 -3.747,-0.344 -5.494,-1.03c-1.746,-0.687 -3.284,-1.679 -4.615,-2.976c-1.331,-1.297 -2.391,-2.882 -3.179,-4.756c-0.789,-1.873 -1.183,-3.997 -1.183,-6.37c0,-1.984 0.233,-3.802 0.7,-5.455c0.466,-1.653 1.106,-3.145 1.92,-4.476c0.813,-1.331 1.78,-2.497 2.899,-3.497c1.119,-1 2.323,-1.835 3.611,-2.505c1.289,-0.67 2.645,-1.174 4.069,-1.513c1.424,-0.339 2.857,-0.509 4.298,-0.509c1.407,0 2.797,0.187 4.171,0.56c1.373,0.373 2.678,0.954 3.916,1.742c1.238,0.788 2.382,1.784 3.433,2.988c1.052,1.204 1.963,2.641 2.734,4.311c0.772,1.67 1.378,3.577 1.819,5.722c0.44,2.144 0.661,4.539 0.661,7.184c-0,1.831 -0.115,3.713 -0.344,5.646c-0.228,1.933 -0.584,3.861 -1.068,5.785c-0.483,1.925 -1.089,3.811 -1.818,5.659c-0.729,1.848 -1.589,3.598 -2.581,5.252c-0.992,1.653 -2.124,3.174 -3.395,4.564c-1.272,1.391 -2.683,2.59 -4.235,3.599c-1.551,1.009 -3.246,1.797 -5.086,2.365c-1.839,0.568 -3.836,0.852 -5.989,0.852c-1.712,0 -3.234,-0.178 -4.565,-0.534c-1.331,-0.356 -2.454,-0.814 -3.37,-1.373c-0.915,-0.56 -1.614,-1.183 -2.098,-1.87c-0.483,-0.686 -0.724,-1.36 -0.724,-2.021c-0,-0.339 0.059,-0.691 0.178,-1.056c0.118,-0.364 0.309,-0.703 0.572,-1.017c0.263,-0.314 0.61,-0.598 1.042,-0.852c0.433,-0.254 0.963,-0.441 1.59,-0.559c0.746,1.051 1.543,1.903 2.39,2.555c0.848,0.653 1.713,1.17 2.594,1.552c0.882,0.381 1.772,0.64 2.671,0.775c0.898,0.136 1.771,0.204 2.619,0.204c2.56,-0 4.781,-0.632 6.663,-1.895c1.882,-1.263 3.442,-3.06 4.68,-5.391c1.237,-2.331 2.153,-5.142 2.746,-8.431c0.594,-3.289 0.89,-6.968 0.89,-11.037c0,-3.984 -0.313,-7.371 -0.941,-10.16c-0.627,-2.789 -1.466,-5.056 -2.517,-6.803c-1.052,-1.746 -2.255,-3.013 -3.612,-3.802c-1.356,-0.788 -2.755,-1.182 -4.196,-1.182c-1.509,-0 -2.874,0.263 -4.094,0.788c-1.221,0.526 -2.255,1.297 -3.103,2.315c-0.848,1.017 -1.5,2.28 -1.958,3.789c-0.458,1.509 -0.687,3.238 -0.687,5.188c0,1.051 0.102,2.136 0.305,3.255c0.204,1.119 0.509,2.213 0.916,3.281c0.407,1.068 0.92,2.077 1.539,3.026c0.618,0.949 1.343,1.78 2.174,2.492c0.831,0.712 1.767,1.276 2.81,1.691c1.043,0.416 2.191,0.623 3.446,0.623c1.17,0 2.331,-0.139 3.484,-0.419c1.153,-0.28 2.34,-0.742 3.56,-1.386Z" style="fill:#8446b4;fill-rule:nonzero;"/><path d="M991.681,24.821c0,1.678 -0.313,3.264 -0.941,4.756c-0.627,1.492 -1.458,2.882 -2.492,4.17c-1.034,1.289 -2.212,2.476 -3.535,3.561c-1.322,1.085 -2.679,2.06 -4.069,2.924c1.051,0.56 2.09,1.124 3.116,1.692c1.025,0.567 2,1.169 2.924,1.805c0.924,0.636 1.78,1.318 2.569,2.047c0.788,0.729 1.471,1.535 2.047,2.416c0.576,0.882 1.03,1.848 1.361,2.9c0.33,1.051 0.495,2.212 0.495,3.484c0,2.136 -0.462,4.166 -1.386,6.09c-0.924,1.925 -2.216,3.612 -3.878,5.061c-1.661,1.45 -3.649,2.598 -5.963,3.446c-2.315,0.848 -4.871,1.272 -7.668,1.272c-1.967,-0 -3.853,-0.25 -5.659,-0.75c-1.805,-0.501 -3.399,-1.272 -4.781,-2.315c-1.381,-1.042 -2.483,-2.361 -3.306,-3.954c-0.822,-1.594 -1.233,-3.484 -1.233,-5.671c-0,-1.832 0.292,-3.497 0.877,-4.998c0.585,-1.5 1.391,-2.886 2.416,-4.158c1.026,-1.271 2.23,-2.445 3.612,-3.522c1.381,-1.077 2.869,-2.115 4.463,-3.115c-1.187,-0.729 -2.306,-1.518 -3.357,-2.365c-1.051,-0.848 -1.971,-1.802 -2.76,-2.861c-0.788,-1.06 -1.411,-2.251 -1.869,-3.574c-0.457,-1.322 -0.686,-2.814 -0.686,-4.475c-0,-2.255 0.474,-4.281 1.424,-6.079c0.949,-1.797 2.221,-3.323 3.814,-4.577c1.594,-1.255 3.417,-2.217 5.468,-2.887c2.052,-0.669 4.188,-1.004 6.409,-1.004c1.594,-0 3.145,0.224 4.654,0.674c1.509,0.449 2.852,1.123 4.031,2.022c1.178,0.898 2.123,2.013 2.835,3.344c0.712,1.331 1.068,2.878 1.068,4.641Zm-18.819,18.412c-1.068,0.746 -2.055,1.552 -2.963,2.416c-0.907,0.865 -1.695,1.81 -2.365,2.836c-0.669,1.026 -1.191,2.14 -1.564,3.344c-0.373,1.204 -0.559,2.509 -0.559,3.916c-0,1.526 0.216,2.98 0.648,4.362c0.433,1.382 1.09,2.59 1.971,3.624c0.882,1.034 1.975,1.856 3.281,2.467c1.305,0.61 2.84,0.915 4.603,0.915c1.373,0 2.73,-0.195 4.069,-0.585c1.339,-0.39 2.543,-0.979 3.611,-1.767c1.068,-0.789 1.929,-1.776 2.582,-2.963c0.652,-1.187 0.979,-2.568 0.979,-4.145c-0,-1.746 -0.339,-3.264 -1.018,-4.552c-0.678,-1.289 -1.576,-2.438 -2.695,-3.446c-1.119,-1.009 -2.399,-1.925 -3.84,-2.747c-1.442,-0.822 -2.925,-1.64 -4.451,-2.454l-2.289,-1.221Zm-5.289,-17.268c-0,1.662 0.292,3.133 0.877,4.413c0.585,1.28 1.365,2.428 2.34,3.446c0.974,1.017 2.102,1.937 3.382,2.759c1.28,0.822 2.615,1.606 4.005,2.352c1.289,-0.864 2.416,-1.742 3.383,-2.632c0.966,-0.89 1.771,-1.827 2.416,-2.81c0.644,-0.983 1.127,-2.039 1.449,-3.166c0.322,-1.128 0.484,-2.361 0.484,-3.7c-0,-1.306 -0.187,-2.518 -0.56,-3.637c-0.373,-1.119 -0.932,-2.094 -1.678,-2.925c-0.746,-0.83 -1.675,-1.479 -2.785,-1.945c-1.111,-0.466 -2.403,-0.7 -3.878,-0.7c-1.289,0 -2.505,0.191 -3.65,0.573c-1.144,0.381 -2.145,0.936 -3.001,1.665c-0.856,0.729 -1.534,1.624 -2.034,2.683c-0.5,1.06 -0.75,2.268 -0.75,3.624Z" style="fill:#8446b4;fill-rule:nonzero;"/><path d="M649.003,1229.49l-551.313,0c-63.998,-110.847 -97.69,-236.588 -97.69,-364.583c-0,-402.438 326.729,-729.167 729.167,-729.167c402.438,0 729.166,326.729 729.166,729.167c0,127.995 -33.692,253.736 -97.689,364.583l-421.954,0c1.632,-4.388 8.509,-30.655 10.294,-62.248c1.974,-34.937 -1.477,-76.051 -7.38,-93.897c-12.437,-37.605 -3.015,-53.952 -3.015,-58.797l0,-28.645c0,-0 1.508,2.933 1.508,4.522c-0,6.219 5.569,21.691 9.046,28.645c2.362,4.725 5.777,45.648 6.03,46.737c5.463,23.482 12.933,37.521 17.627,49.309c6.157,15.468 9.275,19.789 18.863,29.376c4.374,4.375 9.823,9.487 18.992,10.548c5.707,0.66 17.513,-6.942 18.392,-7.821c7.736,-7.735 11.857,-12.955 16.584,-27.137c3.134,-9.403 4.291,-21.464 4.523,-30.153c0.404,-15.119 0.27,-20.02 0,-24.122c-0.373,-5.673 -1.864,-13.922 -3.995,-20.304c-2.609,-7.814 -9.114,-18.17 -12.034,-22.73c-7.978,-12.46 -14.038,-20.542 -20.154,-30.84c-0.741,-1.248 -5.945,-18.177 -3.015,-21.107c2.326,-2.326 15.987,0.456 18.091,1.508c2.265,1.132 10.264,-1.797 12.061,-0c7.862,7.862 19.249,24.472 31.661,12.061c2.979,-2.979 -7.605,-55.915 -9.046,-58.798c-3.762,-7.523 1.715,-26.93 -4.523,-33.168c-10.241,-10.241 -8.951,-34.581 -19.599,-45.229c-5.077,-5.076 1.564,-21.05 -3.016,-25.63c-7.502,-7.502 -5.564,-25.163 -13.568,-33.168c-9.903,-9.902 -18.928,-21.943 -30.153,-33.168c-5.08,-5.08 7.436,-21.209 13.569,-15.076c3.769,3.769 3.769,11.307 7.538,15.076c3.71,3.711 7.538,-5.128 7.538,-6.03c0,-1.636 1.85,-9.388 3.015,-10.554c3.144,-3.143 7.634,19.505 15.077,12.061c5.154,-5.153 -3.507,-28.153 10.553,-42.213c5.136,-5.136 24.012,2.905 25.63,4.523c6.041,6.041 25.63,-0 25.63,-0c-0,-0 -0.813,-11.367 -4.523,-15.077c-0.996,-0.996 -12.832,-41.443 -7.538,-46.736c1.507,-1.508 -0,-6.031 1.507,-7.539c3.235,-3.234 27.918,-29.371 16.584,-40.706c-3.518,-3.518 -5.528,-8.543 -9.046,-12.061c-5.53,-5.53 -13.261,-5.724 -18.091,-10.553c-3.827,-3.828 -15.077,-6.031 -15.077,-6.031c0,0 14.926,-1.658 19.6,3.015c11.708,11.709 29.587,-6.972 33.168,-10.553c2.712,-2.712 -2.199,-15.768 -3.016,-16.584c-0.003,-0.003 -4.014,-27.628 -6.03,-31.66c-2.543,-5.087 -14.724,-10.202 -18.092,-13.569c-0.627,-0.627 -3.552,-11.524 -1.507,-13.569c7.028,-7.028 22.826,5.606 28.645,-6.03c4.692,-9.385 -9.705,-19.79 -3.016,-33.168c3.383,-6.765 5.21,-5.209 9.046,-9.046c3.399,-3.399 -3.097,-24.204 -4.523,-25.63c-3.769,-3.769 2.262,-17.338 -1.507,-21.107c-9.324,-9.324 -17.935,-40.549 -28.645,-51.259c-5.327,-5.327 -6.581,-21.657 -13.569,-28.645c-28.97,-28.971 -61.963,-60.381 -101.012,-79.905c-3.427,-1.714 -9.35,17.787 -10.553,16.584c-2.262,-2.261 -0.754,-8.292 -3.015,-10.553c-12.847,-12.847 -27.77,-15.709 -39.199,-27.138c-1.507,-1.507 -6.03,0 -7.538,-1.507c-10.957,-10.958 -21.725,-16.893 -33.168,-22.615c-5.539,-2.77 -19.063,-1.508 -25.63,-1.508c-1.763,0 -13.591,-1.485 -15.076,0c-1.805,1.805 2.286,31.296 -3.015,28.645c-8.468,-4.233 -39.76,-5.084 -45.229,-10.553c-10.782,-10.781 -35.206,-21.637 -46.737,-33.168c-2.977,-2.977 -53.727,3.015 -60.305,3.015c-12.187,0 -39.72,-16.063 -46.737,-9.046c-4.948,4.948 -63.074,32.291 -76.89,39.199c-10.896,5.448 -32.567,-25.176 -49.751,-16.584c-20.624,10.312 -73.644,37.23 -81.413,52.767c-1.309,2.619 -22.256,18.45 -12.061,28.645c11.271,11.271 28.989,6.203 43.722,13.569c11.32,5.66 28.571,7.39 33.168,16.584c0.502,1.005 3.015,1.508 3.015,1.508c-0,-0 -13.696,-0.128 -18.092,-4.523c-1.637,-1.637 -49.977,-5.805 -52.767,-3.016c-6.045,6.046 -6.841,15.887 -13.569,22.615c-9.319,9.319 -22.248,26.771 -33.168,37.691c-6.71,6.71 -33.421,4.776 -37.691,9.046c-8.681,8.681 -16.667,18.174 -24.122,25.629c-3.721,3.722 -1.507,18.599 -1.507,24.123c-0,5.861 -3.611,31.065 -0,34.675c5.986,5.987 7.538,21.29 7.538,31.66c-0,31.249 -1.578,54.416 -12.061,75.382c-5.504,11.007 10.733,56.141 15.076,64.829c5.015,10.029 -2.248,27.904 4.523,34.675c7.246,7.247 23.532,9.963 30.153,16.584c3.517,3.518 4.02,10.051 7.538,13.569c6.479,6.479 17.587,11.052 22.614,21.107c4.814,9.627 -29.914,47.767 -34.675,57.29c-9.838,19.676 4.974,46.286 -9.046,60.305c-1.933,1.933 1.271,9.519 -0,12.061c-1.788,3.576 -8.596,48.695 -6.031,51.26c4.033,4.033 3.172,15.232 7.539,19.599c7.28,7.281 15.333,9.303 22.614,16.584c5.04,5.04 17.417,5.356 22.615,10.554c4.02,4.02 20.101,-4.021 24.122,-0c4.248,4.248 29.207,2.069 31.66,4.522c3.769,3.77 77.643,-3.769 81.412,0c5.751,5.751 -1.751,53.255 -4.523,58.798c-3.603,7.208 0.436,23.687 -4.522,28.645c-21.185,21.185 -41.189,92.086 -23.99,128.756c5.094,10.862 6.738,16.86 18.997,22.989c2.876,1.438 13.73,1.846 14.05,1.836c38.06,-1.12 63.134,-75.033 86.788,-98.688c0.592,-0.592 -4.047,76.617 0.643,95.871c3.138,12.882 7.227,19.902 11.469,27.42c8.422,14.929 17.056,23.19 17.056,23.19Zm83.834,0c0.485,-4.126 1.145,-7.32 2.221,-8.396c5.887,-5.887 8.136,-97.401 6.031,-117.596c-3.589,-34.425 -20.291,-65.52 -25.63,-70.859c-5.05,-5.05 -13.569,-16.584 -13.569,-16.584c0,0 4.566,0.043 6.031,1.508c7.139,7.138 29.842,9.932 34.676,19.599c4.158,8.317 20.312,29.358 27.137,36.183c4.698,4.698 6.977,32.607 12.061,37.691c2.4,2.4 8.408,6.901 10.554,9.046c5.708,5.708 14.807,19.062 18.091,25.63c2.431,4.862 9.046,13.569 9.046,13.569c0,-0 3.554,-11.523 0,-15.077c-1.741,-1.741 -4.743,-32.948 -1.508,-36.183c5.54,-5.54 -0.72,-21.895 6.031,-28.645c7.167,-7.167 12.944,-15.959 19.599,-22.615c0.511,-0.511 0.849,-1.398 1.069,-2.339c0.328,-2.141 0.439,-3.691 0.439,-3.691c-0,-0 -0.018,1.936 -0.439,3.691c-0.557,3.66 -1.744,9.045 -4.084,11.385c-5.023,5.023 1.074,90.766 13.68,125.918c8.304,23.154 11.257,21.375 19.575,37.765l-141.011,0Z" style="fill:#9a5ed1;"/><path d="M670.519,1081.23c25.841,-3.889 51.828,26.227 57.995,67.211c6.168,40.983 -9.805,77.414 -35.646,81.303c-25.841,3.889 -51.828,-26.227 -57.995,-67.211c-6.168,-40.983 9.805,-77.414 35.646,-81.303Z" style="fill:#66387b;"/><path d="M890.085,1098.05c21.796,-2.957 43.345,23.043 48.091,58.024c4.746,34.982 -9.098,65.783 -30.894,68.74c-21.797,2.957 -43.346,-23.043 -48.092,-58.024c-4.745,-34.982 9.098,-65.783 30.895,-68.74Z" style="fill:#66387b;"/><path d="M987.995,1015.05c19.638,-5.423 42.716,16.009 51.504,47.83c8.788,31.822 -0.021,62.06 -19.659,67.483c-19.638,5.424 -42.717,-16.009 -51.505,-47.83c-8.787,-31.822 0.021,-62.06 19.66,-67.483Z" style="fill:#66387b;"/><path d="M566.185,1054.11c21.809,8.535 30.073,39.592 18.442,69.309c-11.63,29.718 -38.779,46.915 -60.588,38.38c-21.81,-8.536 -30.073,-39.592 -18.443,-69.31c11.631,-29.718 38.779,-46.915 60.589,-38.379Z" style="fill:#66387b;"/><path d="M888.48,639.077c-0,-22.454 -13.162,-26.433 -27.075,-38.496c-3.61,-3.129 -17.606,-10.625 -40.319,-3.593c-2.057,0.637 -24.568,17.756 -32.24,11.105c-9.776,-8.476 -18.053,-13.918 -47.651,-11.267c-2.747,0.246 -25.562,0.162 -44.402,13.145c-4.88,3.362 -8.65,9.376 -12.996,13.144c-1.709,1.482 -1.614,6.094 -3.249,7.512c-0.904,0.783 -2.485,14.139 -2.485,15.528c0,4.207 1.606,20.328 3.568,22.029c3.064,2.656 5.752,7.803 9.747,11.267c4.45,3.858 22.102,18.787 36.685,31.287c19.047,16.326 26.603,37.564 29.167,41.667c10.416,16.666 14.63,38.071 16.666,56.25c1.594,14.225 2.084,10.416 6.25,31.25c0.836,4.177 2.084,12.5 10.417,33.333c3.46,8.651 8.333,20.833 16.667,20.833c11.952,0 38.192,-60.782 49.548,-100.165c9.678,-33.564 13.677,-114.79 20.872,-121.028c4.332,-3.756 2.904,-18.479 7.581,-22.534c1.208,-1.047 3.249,-9.622 3.249,-11.267Zm-148.511,-28.023c10.744,-0 19.468,6.302 19.468,14.065c-0,7.763 -8.724,14.066 -19.468,14.066c-10.745,-0 -19.469,-6.303 -19.469,-14.066c0,-7.763 8.724,-14.065 19.469,-14.065Zm97.341,-0c10.745,-0 19.468,5.042 19.468,11.252c0,6.211 -8.723,11.253 -19.468,11.253c-10.745,-0 -19.468,-5.042 -19.468,-11.253c-0,-6.21 8.723,-11.252 19.468,-11.252Z" style="fill:#8446b4;"/><rect x="97.803" y="1271.15" width="1262.73" height="10.417" style="fill:#66387b;"/><path d="M195.618,1601.52c-6.358,-15.161 -17.607,-23.965 -29.344,-23.965l-68.471,0c0,89.962 68.471,134.924 136.941,134.924c73.346,-0 146.661,-44.962 146.661,-134.924l-0,-229.864c-0,-13.694 -10.753,-24.454 -24.439,-24.454l-73.315,0l0,254.318c0,33.746 -24.453,50.864 -48.907,50.864c-15.651,0 -31.79,-9.292 -39.126,-26.899Z" style="fill:#2d2d50;fill-rule:nonzero;"/><path d="M707.128,1603.47c-0,-109.095 -182.425,-129.642 -182.425,-173.672c0,-11.741 15.174,-22.992 29.858,-22.992l139.369,-0l0,-61.579c0,-13.195 -10.753,-21.992 -24.439,-21.992l-105.141,0c-87.057,0 -138.867,39.586 -138.867,105.585c-0,103.714 176.066,121.325 176.066,165.844c0,12.719 -14.684,24.461 -29.368,24.461l-149.144,-0l0,59.134c0,13.684 10.755,24.436 24.44,24.436l129.599,0c79.218,0 130.052,-39.097 130.052,-99.225Z" style="fill:#2d2d50;fill-rule:nonzero;"/><path d="M993.263,1506.61c29.815,-20.035 44.479,-48.407 44.479,-77.288c-0,-52.818 -46.435,-106.088 -138.372,-106.088l-150.121,0l0,355.024c0,13.684 10.753,24.436 24.439,24.436l140.364,0c92.904,0 138.362,-52.781 138.362,-106.087c-0,-34.755 -20.04,-69.961 -59.144,-89.997l-0.007,0Zm-146.26,-99.805l52.363,-0c23.985,-0 36.22,16.153 36.22,31.818c0,18.112 -12.235,36.224 -36.216,36.224l-52.367,-0l-0,-68.042Zm-0,141.831l62.155,-0c23.976,-0 36.21,18.601 36.21,37.691c-0,16.154 -12.234,32.797 -36.214,32.797l-62.151,-0l-0,-70.488Z" style="fill:#2d2d50;fill-rule:nonzero;"/><path d="M1360.53,1603.47c0,-109.095 -182.424,-129.642 -182.424,-173.672c-0,-11.741 15.173,-22.992 29.857,-22.992l139.37,-0l-0,-61.579c-0,-13.195 -10.754,-21.992 -24.44,-21.992l-105.141,0c-87.057,0 -138.867,39.586 -138.867,105.585c-0,103.714 176.066,121.325 176.066,165.844c0,12.719 -14.684,24.461 -29.368,24.461l-149.144,-0l0,59.134c0,13.684 10.755,24.436 24.441,24.436l129.598,0c79.218,0 130.052,-39.097 130.052,-99.225Z" style="fill:#2d2d50;fill-rule:nonzero;"/><path d="M873.128,489.107c-3.502,-1.682 -57.696,20.342 -67.865,41.511c-10.169,21.169 -11.736,55.722 -8.235,57.404c1.32,-7.233 3.252,-38.903 11.408,-55.88c8.155,-16.977 59.871,-37.483 64.692,-43.035Z" style="fill:#9a5ed1;"/><path d="M815.267,419.262c-3.876,-0.267 -26.346,53.839 -28.649,87.269c-2.303,33.429 -0.447,81.044 3.428,81.311c-1.242,-10.229 -1.764,-54.259 0.083,-81.069c1.847,-26.81 22.505,-77.55 25.138,-87.511Z" style="fill:#9a5ed1;"/><path d="M694.141,486.487c3.411,-1.86 61.252,17.357 74.08,40.882c12.828,23.524 16.637,59.914 13.227,61.774c-2.169,-8.034 -6.029,-41.224 -16.317,-60.09c-10.288,-18.865 -65.411,-36.392 -70.99,-42.566Z" style="fill:#9a5ed1;"/></svg>