<?xml version="1.0" encoding="UTF-8" standalone="no"?><!DOCTYPE svg PUBLIC "-//W3C//DTD SVG 1.1//EN" "http://www.w3.org/Graphics/SVG/1.1/DTD/svg11.dtd"><svg width="100%" height="100%" viewBox="0 0 1891 2248" version="1.1" xmlns="http://www.w3.org/2000/svg" xmlns:xlink="http://www.w3.org/1999/xlink" xml:space="preserve" xmlns:serif="http://www.serif.com/" style="fill-rule:evenodd;clip-rule:evenodd;stroke-linecap:round;stroke-linejoin:round;stroke-miterlimit:1.5;"><path d="M1109.84,566.459c-4.308,-1.934 -70.994,23.388 -83.507,47.728c-12.513,24.34 -14.442,64.069 -10.133,66.003c1.624,-8.317 4.002,-44.731 14.037,-64.251c10.035,-19.52 73.67,-43.097 79.603,-49.48Z" style="fill:#412b56;"/><path d="M1038.64,486.152c-4.768,-0.307 -32.418,61.903 -35.252,100.34c-2.834,38.437 -0.55,93.183 4.219,93.49c-1.529,-11.76 -2.172,-62.386 0.101,-93.212c2.273,-30.826 27.692,-89.165 30.932,-100.618Z" style="fill:#412b56;"/><path d="M889.593,563.446c4.197,-2.138 75.37,19.957 91.155,47.005c15.784,27.047 20.472,68.888 16.275,71.027c-2.668,-9.237 -7.418,-47.398 -20.077,-69.09c-12.659,-21.691 -80.488,-41.843 -87.353,-48.942Z" style="fill:#412b56;"/><path d="M477.597,1573.32l-350.948,-0c-82.969,-143.707 -126.649,-306.722 -126.649,-472.661c-0,-521.737 423.584,-945.321 945.321,-945.321c521.737,-0 945.321,423.584 945.321,945.321c0,165.939 -43.679,328.954 -126.649,472.661l-494.427,-0c6.261,-27.28 15.371,-55.764 13.107,-80.653c-3.045,-33.468 2.586,-54.389 13.864,-81.589c13.48,-32.509 31.946,-62.223 35.226,-99.94c5.601,-64.41 -5.601,-107.174 -31.18,-167.361c-11.246,-26.461 -12.959,-64.291 -22.885,-91.423c-13.072,-35.731 -10.58,-75.12 -25.729,-110.766c-10.012,-23.557 -28.572,-42.778 -41.469,-64.634c2.785,-5.259 5.961,-9.825 10.993,-11.742c8.468,-3.226 21.057,15.066 31.429,15.715c16.72,1.045 15.221,-21.729 25.986,-27.98c10.041,-5.83 27.9,2.682 35.338,-6.822c5.754,-7.352 0.051,-19.989 -0.69,-28.133c-2.109,-23.206 18.316,-43.939 10.502,-67.38c-2.445,-7.338 -24.666,-18.941 -23.533,-24.607c1.371,-6.857 36.082,10.805 30.892,-15.791c-3.676,-18.839 -37.774,-46.458 -36.181,-61.325c1.423,-13.283 29.229,-14.205 37.484,-22.46c6.172,-6.171 16.136,-73.701 12.265,-83.248c-7.201,-17.763 -28.758,-18.442 -38.174,-33.805c-8.922,-14.557 -8.876,-32.847 -17.094,-47.987c-11.292,-20.801 -32.813,-32.138 -48.14,-49.443c-7.423,-8.381 -12.121,-20.279 -20.621,-27.519c-10.294,-8.769 -24.769,0.704 -35.032,-7.359c-9.315,-7.32 -15.154,-18.281 -24.529,-25.833c-17.958,-14.466 -55.951,-23.799 -78.879,-24.454c-24.059,-0.687 3.881,40.934 -20.237,36.412c-12.716,-2.384 -22.389,-13.086 -35.109,-16.021c-15.229,-3.515 -33.414,5.012 -47.22,-3.45c-10.206,-6.255 -7.703,-24.851 -18.014,-28.976c-10.538,-4.215 -27.358,11.281 -40.704,8.739c-17.306,-3.296 -27.796,-17.671 -46.837,-16.481c-38.073,2.38 -57.785,35.749 -80.105,37.102c-24.123,1.462 -30.606,-26.768 -65.848,-13.875c-16.501,6.037 -27.671,19.596 -37.868,33.192c-9.491,12.655 -45.303,26.775 -45.303,42.084c-0,31.572 84.624,37.582 106.015,43.694c11.148,3.185 25.762,8.015 35.108,15.024c0.165,0.124 0.386,0.375 0.307,0.614c-0.321,0.961 -5.181,-0.859 -5.596,-0.997c-14.195,-4.732 -28.892,-8.186 -43.464,-11.575c-32.298,-7.511 -75.827,-13.995 -107.701,-1.073c-21.897,8.877 -72.64,70.127 -75.506,93.06c-3.752,30.011 10.249,59.401 5.442,90.301c-7.332,47.138 -31.333,105.068 -3.986,151.012c10.972,18.432 38.987,40.102 68.934,59.818c-3.597,9.003 -7.319,17.956 -11.373,26.778c-9.676,21.061 -26.335,36.473 -31.224,59.831c-6.013,28.729 2.237,59.044 -5.233,87.566c-6.618,25.27 -26.929,45.086 -40.12,67.07c-24.152,40.254 -43.21,89.768 -50.76,136.146c-9.782,60.088 9.34,117.755 8.024,176.964c-0.455,20.456 -10.567,33.807 -15.263,52.592c-3.23,12.919 6.416,25.372 6.105,38.114c-0.409,16.775 -11.758,33.485 -9.245,50.237c3.485,23.235 1.502,31.185 1.862,32.637Z" style="fill:#9a5ed1;"/><path d="M922.541,774.687c7.597,-10.829 53.616,11.478 94.392,13.481c31.819,1.564 63.652,-20.663 69.58,-12.212c13.525,19.279 -14.304,110.35 -27.829,148.91c-9.467,28.919 -36.066,77.118 -54.099,77.118c-18.033,0 -44.631,-48.199 -54.099,-77.118c-13.525,-38.56 -41.469,-130.9 -27.945,-150.179Z" style="fill:#9a5ed1;stroke:#fff;stroke-width:4.17px;"/><path d="M1003.96,752.347c12.356,-0 22.378,-16.508 37.068,-16.508c27.619,0 50.042,22.517 50.042,50.252c-0,27.734 -22.423,50.251 -50.042,50.251c-14.69,-0 -24.712,-16.507 -37.068,-16.507c-12.356,-0 -22.377,16.507 -37.068,16.507c-27.618,-0 -50.041,-22.517 -50.041,-50.251c-0,-27.735 22.423,-50.252 50.041,-50.252c14.691,0 24.712,16.508 37.068,16.508Z" style="fill:#9a5ed1;stroke:#fff;stroke-width:4.17px;"/><ellipse cx="959.216" cy="759.461" rx="12.712" ry="8.732" style="fill:#fff;"/><path d="M1051.57,751.077c5.889,-1.726 11.76,0.588 13.1,5.163c1.341,4.575 -2.352,9.691 -8.242,11.417c-5.89,1.726 -11.76,-0.587 -13.101,-5.163c-1.34,-4.575 2.353,-9.691 8.243,-11.417Z" style="fill:#fff;"/><path d="M740.93,1101c26.002,4.899 40.981,41.424 33.428,81.513c-7.553,40.089 -34.795,68.658 -60.798,63.76c-26.002,-4.899 -40.981,-41.424 -33.428,-81.513c7.553,-40.089 34.795,-68.659 60.798,-63.76Z" style="fill:#9a5ed1;"/><path d="M1155.26,1098.56c25.705,-6.278 54.432,20.799 64.111,60.428c9.679,39.629 -3.332,76.9 -29.036,83.179c-25.704,6.278 -54.431,-20.799 -64.111,-60.429c-9.679,-39.629 3.332,-76.9 29.036,-83.178Z" style="fill:#9a5ed1;"/><path d="M859.978,1201.95c34.583,-0.068 62.748,45.229 62.857,101.088c0.109,55.86 -27.879,101.266 -62.462,101.333c-34.582,0.068 -62.747,-45.229 -62.856,-101.088c-0.109,-55.86 27.879,-101.266 62.461,-101.333Z" style="fill:#9a5ed1;"/><path d="M1044.04,1208.77c34.583,-0.068 62.748,45.229 62.857,101.088c0.109,55.86 -27.88,101.266 -62.462,101.333c-34.582,0.067 -62.747,-45.229 -62.856,-101.088c-0.109,-55.86 27.879,-101.266 62.461,-101.333Z" style="fill:#9a5ed1;"/><path d="M666.585,1120.27c-16.01,81.257 1.539,153.245 39.164,160.658c37.625,7.413 81.17,-52.538 97.18,-133.794c-16.644,73.158 -58.223,127.024 -94.44,119.888c-36.218,-7.136 -54.256,-72.748 -41.904,-146.752Z" style="fill:#412b56;"/><path d="M1105.26,1168.93c25.237,69.231 71.236,116.138 102.658,104.683c31.422,-11.454 36.443,-76.959 11.207,-146.19c21.06,63.345 14.721,123.317 -15.526,134.342c-30.246,11.026 -73.693,-30.797 -98.339,-92.835Z" style="fill:#412b56;"/><path d="M781.82,1281.78c-3.913,84.449 28.925,154.679 73.285,156.735c44.36,2.055 83.552,-64.838 87.464,-149.287c-6.449,74.948 -44.266,134.286 -86.678,132.321c-42.412,-1.965 -74.579,-64.546 -74.071,-139.769Z" style="fill:#412b56;"/><path d="M960.483,1295.62c2.084,82.773 40.501,149.049 85.734,147.91c45.234,-1.139 80.266,-69.264 78.182,-152.037c-1.176,73.671 -35.353,134.319 -78.6,135.408c-43.248,1.089 -80.433,-57.762 -85.316,-131.281Z" style="fill:#412b56;"/><rect x="131.423" y="1613.81" width="1627.8" height="27.239" style="fill:#412b56;"/><path d="M537.131,2049.73c-0,33.375 -2.72,60.605 -8.161,81.69c-5.44,21.085 -12.45,37.548 -21.029,49.387c-8.579,11.839 -19.669,23.735 -33.271,35.687c-10.462,9.02 -23.121,16.462 -37.978,22.325c-14.857,5.863 -26.888,8.795 -36.095,8.795c-7.952,-0 -15.903,-1.635 -23.855,-4.905c-7.951,-3.27 -14.595,-7.104 -19.93,-11.501c-5.336,-4.397 -8.004,-7.949 -8.004,-10.655c-0,-3.608 4.551,-9.528 13.653,-17.759c9.103,-8.231 16.688,-13.587 22.756,-16.068c11.09,7.893 19.983,13.08 26.679,15.56c6.696,2.481 14.334,3.721 22.913,3.721c8.37,0 16.478,-3.946 24.325,-11.839c7.847,-7.893 14.438,-21.649 19.774,-41.268c5.336,-19.619 8.003,-45.891 8.003,-78.815l0,-345.706c0,-7.667 -20.401,-14.658 -61.205,-20.972l0,-14.546l156.936,0l0,14.546c-14.019,3.157 -25.109,6.652 -33.27,10.486c-8.161,3.833 -12.241,7.329 -12.241,10.486l-0,321.351Z" style="fill-rule:nonzero;"/><path d="M742.717,2129.22c-14.02,-0 -30.079,-3.045 -48.179,-9.134c-18.1,-6.088 -34.369,-14.094 -48.807,-24.016c-1.465,-0.902 -2.564,-4.792 -3.296,-11.67c-0.732,-6.878 -1.099,-15.279 -1.099,-25.201c0,-22.1 1.465,-38.675 4.395,-49.725l12.868,1.691c9.207,25.483 22.861,44.764 40.961,57.844c18.1,13.079 38.344,19.619 60.734,19.619c12.555,-0 25.005,-3.665 37.351,-10.994c12.345,-7.329 22.494,-17.082 30.445,-29.26c7.952,-12.177 11.927,-25.144 11.927,-38.9c0,-16.237 -4.08,-30.218 -12.241,-41.945c-8.16,-11.726 -18.257,-21.423 -30.288,-29.09c-12.032,-7.668 -28.301,-16.575 -48.807,-26.723c-22.808,-11.276 -41.065,-21.423 -54.771,-30.444c-13.706,-9.02 -25.371,-20.859 -34.997,-35.518c-9.625,-14.658 -14.438,-32.586 -14.438,-53.783c0,-15.786 4.342,-32.136 13.026,-49.049c8.684,-16.913 22.442,-31.176 41.274,-42.79c18.832,-11.614 42.477,-17.421 70.935,-17.421c19.041,0 37.403,2.932 55.084,8.795c17.682,5.863 30.394,13.305 38.136,22.326c0.628,0.676 0.941,1.691 0.941,3.044c0,4.51 -2.981,11.445 -8.945,20.803c-5.963,9.359 -11.456,16.406 -16.478,21.142l-11.3,-2.03c-10.88,-13.981 -22.964,-24.186 -36.252,-30.613c-13.287,-6.427 -26.522,-9.64 -39.704,-9.64c-14.648,-0 -26.889,3.044 -36.723,9.133c-9.835,6.089 -17.159,13.7 -21.972,22.833c-4.812,9.133 -7.219,18.322 -7.219,27.568c0,11.727 3.61,22.213 10.829,31.459c7.219,9.246 16.164,17.307 26.836,24.186c10.672,6.878 25.528,15.278 44.57,25.2c24.691,12.854 44.622,24.524 59.792,35.01c15.171,10.487 28.144,23.961 38.921,40.423c10.776,16.462 16.164,36.194 16.164,59.196c-0,21.424 -5.284,42.734 -15.851,63.932c-10.567,21.198 -26.417,38.788 -47.551,52.769c-21.134,13.982 -46.558,20.973 -76.271,20.973Z" style="fill-rule:nonzero;"/><path d="M1086.09,2123.81c-15.275,0 -39.182,-0.676 -71.72,-2.029c-32.538,-1.353 -54.248,-2.255 -65.128,-2.706l-22.913,-0l-0,-14.546c13.81,-2.931 24.848,-6.314 33.113,-10.148c8.266,-3.833 12.398,-7.329 12.398,-10.486l0,-367.354c-13.182,1.578 -28.353,4.059 -45.511,7.442l-2.825,-20.973c17.995,-5.412 39.548,-10.148 64.658,-14.207c25.109,-4.059 48.336,-6.089 69.679,-6.089c27.83,0 52.051,3.665 72.662,10.994c20.61,7.329 36.461,17.872 47.551,31.628c11.09,13.756 16.635,29.992 16.635,48.71c0,23.904 -5.335,44.707 -16.007,62.409c-10.672,17.703 -25.214,30.388 -43.628,38.055c17.786,3.608 33.846,11.332 48.179,23.171c14.333,11.839 25.633,26.497 33.898,43.974c8.265,17.477 12.398,36.476 12.398,56.998c0,25.257 -6.016,47.3 -18.048,66.13c-12.031,18.83 -28.928,33.376 -50.69,43.636c-21.762,10.261 -46.662,15.391 -74.701,15.391Zm-64.03,-249.977l10.671,0c75.539,0 113.308,-27.737 113.308,-83.213c0,-24.58 -8.108,-43.974 -24.325,-58.181c-16.217,-14.207 -43.366,-21.311 -81.45,-21.311c-3.766,0 -9.834,0.226 -18.204,0.677l-0,162.028Zm-0,210.062c-0,1.579 0.941,3.27 2.825,5.074c12.136,4.285 30.236,6.427 54.3,6.427c19.878,0 37.246,-3.552 52.102,-10.655c14.857,-7.104 26.365,-17.082 34.526,-29.937c8.161,-12.854 12.241,-27.737 12.241,-44.65c0,-17.816 -3.819,-35.236 -11.456,-52.262c-7.638,-17.026 -19.303,-31.064 -34.997,-42.114c-15.693,-11.05 -34.944,-16.575 -57.752,-16.575c-15.694,0 -32.957,1.691 -51.789,5.074l-0,179.618Z" style="fill-rule:nonzero;"/><path d="M1402.16,2129.22c-14.02,-0 -30.08,-3.045 -48.18,-9.134c-18.1,-6.088 -34.369,-14.094 -48.807,-24.016c-1.465,-0.902 -2.563,-4.792 -3.295,-11.67c-0.733,-6.878 -1.099,-15.279 -1.099,-25.201c-0,-22.1 1.465,-38.675 4.394,-49.725l12.869,1.691c9.207,25.483 22.86,44.764 40.96,57.844c18.1,13.079 38.345,19.619 60.734,19.619c12.555,-0 25.006,-3.665 37.351,-10.994c12.346,-7.329 22.494,-17.082 30.446,-29.26c7.951,-12.177 11.927,-25.144 11.927,-38.9c-0,-16.237 -4.08,-30.218 -12.241,-41.945c-8.161,-11.726 -18.257,-21.423 -30.289,-29.09c-12.032,-7.668 -28.301,-16.575 -48.807,-26.723c-22.808,-11.276 -41.065,-21.423 -54.77,-30.444c-13.706,-9.02 -25.372,-20.859 -34.997,-35.518c-9.626,-14.658 -14.438,-32.586 -14.438,-53.783c-0,-15.786 4.342,-32.136 13.025,-49.049c8.684,-16.913 22.442,-31.176 41.275,-42.79c18.832,-11.614 42.477,-17.421 70.935,-17.421c19.041,0 37.403,2.932 55.084,8.795c17.682,5.863 30.393,13.305 38.135,22.326c0.628,0.676 0.942,1.691 0.942,3.044c0,4.51 -2.982,11.445 -8.945,20.803c-5.964,9.359 -11.457,16.406 -16.479,21.142l-11.299,-2.03c-10.881,-13.981 -22.965,-24.186 -36.252,-30.613c-13.287,-6.427 -26.522,-9.64 -39.705,-9.64c-14.647,-0 -26.888,3.044 -36.723,9.133c-9.835,6.089 -17.158,13.7 -21.971,22.833c-4.813,9.133 -7.219,18.322 -7.219,27.568c0,11.727 3.61,22.213 10.829,31.459c7.219,9.246 16.164,17.307 26.836,24.186c10.671,6.878 25.528,15.278 44.569,25.2c24.692,12.854 44.623,24.524 59.793,35.01c15.171,10.487 28.144,23.961 38.92,40.423c10.776,16.462 16.165,36.194 16.165,59.196c-0,21.424 -5.284,42.734 -15.851,63.932c-10.567,21.198 -26.418,38.788 -47.552,52.769c-21.134,13.982 -46.557,20.973 -76.27,20.973Z" style="fill-rule:nonzero;"/><path d="M527.267,30.588c0,-1.201 -0.091,-2.214 -0.272,-3.038c-0.182,-0.824 -0.517,-1.501 -1.006,-2.032c-0.489,-0.531 -1.166,-0.915 -2.032,-1.152c-0.866,-0.238 -1.983,-0.356 -3.352,-0.356c-0.894,-0 -1.9,0.049 -3.017,0.146c-1.118,0.098 -2.389,0.231 -3.813,0.398l-0.419,-3.896c2.737,-0.419 5.279,-0.79 7.626,-1.111c2.346,-0.321 4.546,-0.6 6.599,-0.838c2.054,-0.237 3.974,-0.412 5.762,-0.524c1.788,-0.111 3.478,-0.167 5.07,-0.167c4.581,-0 8.883,-0.035 12.906,-0.105c4.022,-0.07 7.584,-0.14 10.685,-0.209l11.313,-0.315c1.285,0 2.27,0.301 2.954,0.901c0.685,0.601 1.027,1.53 1.027,2.787c-0,0.502 -0.049,1.48 -0.147,2.933c-0.098,1.452 -0.223,3.121 -0.377,5.007c-0.154,1.886 -0.328,3.876 -0.524,5.971c-0.195,2.095 -0.405,4.05 -0.628,5.866l-4.023,-0.125c0.056,-1.062 0.098,-2.054 0.126,-2.975c0.028,-0.922 0.042,-1.788 0.042,-2.598c-0,-2.347 -0.14,-4.253 -0.419,-5.72c-0.28,-1.467 -0.789,-2.619 -1.53,-3.457c-0.74,-0.838 -1.752,-1.411 -3.037,-1.718c-1.285,-0.307 -2.92,-0.475 -4.903,-0.503c-1.453,-0.028 -2.8,-0.049 -4.044,-0.063c-1.243,-0.014 -2.451,-0.02 -3.624,-0.02l-10.119,-0l-3.457,0.062c-0.671,0.014 -1.411,0.035 -2.221,0.063c-0.112,4.721 -0.251,10.413 -0.419,17.075c-0.168,6.663 -0.363,14.1 -0.587,22.313c3.632,0.167 6.879,0.286 9.743,0.356c2.863,0.07 5.482,0.105 7.856,0.105c2.905,-0 5.482,-0.091 7.731,-0.273c2.249,-0.181 4.379,-0.467 6.39,-0.859c0.447,1.23 0.67,2.333 0.67,3.311c0,0.81 -0.251,1.494 -0.754,2.053c-0.503,0.559 -1.222,1.006 -2.158,1.341c-0.936,0.335 -2.067,0.579 -3.394,0.733c-1.327,0.154 -2.814,0.23 -4.462,0.23c-2.933,0 -6.251,-0.16 -9.952,-0.481c-3.701,-0.322 -7.647,-0.72 -11.837,-1.195c-0.112,3.436 -0.231,7.012 -0.356,10.727c-0.126,3.716 -0.245,7.487 -0.357,11.314l-0.712,23.255l-9.931,1.257l-0.754,-0.084c0.335,-8.017 0.636,-15.615 0.901,-22.794c0.265,-7.179 0.489,-14.163 0.67,-20.951c0.182,-6.788 0.322,-13.513 0.419,-20.176c0.098,-6.662 0.147,-13.485 0.147,-20.469Z" style="fill-rule:nonzero;"/><path d="M576.208,89.712c0,-2.822 0.294,-5.685 0.88,-8.59c0.587,-2.905 1.453,-5.72 2.598,-8.443c1.146,-2.724 2.563,-5.28 4.253,-7.668c1.69,-2.389 3.639,-4.477 5.846,-6.265c2.206,-1.788 4.665,-3.198 7.374,-4.232c2.71,-1.033 5.657,-1.55 8.842,-1.55c3.575,-0 6.739,0.754 9.49,2.263c2.752,1.508 5.063,3.498 6.935,5.971c1.872,2.472 3.289,5.286 4.253,8.443c0.964,3.156 1.446,6.383 1.446,9.679c-0,2.821 -0.294,5.685 -0.88,8.59c-0.587,2.905 -1.46,5.72 -2.619,8.443c-1.159,2.724 -2.584,5.28 -4.274,7.668c-1.69,2.389 -3.639,4.477 -5.845,6.264c-2.207,1.788 -4.665,3.199 -7.375,4.233c-2.71,1.033 -5.657,1.55 -8.841,1.55c-3.576,-0 -6.74,-0.754 -9.491,-2.263c-2.752,-1.508 -5.056,-3.499 -6.914,-5.971c-1.858,-2.472 -3.268,-5.286 -4.232,-8.443c-0.964,-3.157 -1.446,-6.383 -1.446,-9.679Zm10.015,-3.981c-0,1.9 0.147,3.827 0.44,5.782c0.293,1.956 0.747,3.841 1.362,5.657c0.614,1.816 1.376,3.513 2.283,5.091c0.908,1.579 1.984,2.954 3.227,4.128c1.243,1.173 2.64,2.095 4.19,2.765c1.55,0.671 3.261,1.006 5.133,1.006c2.039,-0 3.834,-0.44 5.384,-1.32c1.551,-0.88 2.892,-2.046 4.023,-3.499c1.131,-1.453 2.067,-3.115 2.807,-4.986c0.741,-1.872 1.334,-3.806 1.781,-5.804c0.447,-1.997 0.761,-3.973 0.943,-5.929c0.182,-1.955 0.272,-3.757 0.272,-5.405c0,-1.928 -0.146,-3.862 -0.44,-5.803c-0.293,-1.942 -0.747,-3.814 -1.361,-5.615c-0.615,-1.802 -1.376,-3.492 -2.284,-5.07c-0.908,-1.579 -1.983,-2.948 -3.227,-4.107c-1.243,-1.159 -2.639,-2.074 -4.19,-2.744c-1.55,-0.671 -3.261,-1.006 -5.133,-1.006c-2.039,-0 -3.834,0.433 -5.384,1.299c-1.55,0.866 -2.891,2.025 -4.023,3.478c-1.131,1.452 -2.067,3.115 -2.807,4.986c-0.74,1.872 -1.334,3.799 -1.781,5.783c-0.447,1.983 -0.761,3.959 -0.943,5.929c-0.181,1.969 -0.272,3.764 -0.272,5.384Z" style="fill-rule:nonzero;"/><path d="M654.816,61.344c0,1.9 -0.063,3.932 -0.188,6.097c-0.126,2.165 -0.28,4.365 -0.461,6.599c-0.182,2.235 -0.377,4.463 -0.587,6.684c-0.209,2.221 -0.405,4.323 -0.587,6.306c-0.181,1.983 -0.335,3.806 -0.46,5.468c-0.126,1.662 -0.189,3.052 -0.189,4.169c-0,3.325 0.628,5.755 1.886,7.291c1.257,1.537 2.933,2.305 5.028,2.305c2.374,-0 4.804,-1.278 7.291,-3.834c2.486,-2.556 4.86,-6.292 7.123,-11.209c2.263,-4.916 4.19,-10.44 5.782,-16.572c1.593,-6.132 2.612,-12.745 3.059,-19.84l8.883,-1.09l0.671,0.042c-0.252,2.654 -0.482,5.468 -0.692,8.443c-0.209,2.975 -0.398,5.95 -0.565,8.925c-0.168,2.975 -0.294,5.887 -0.377,8.737c-0.084,2.849 -0.126,5.475 -0.126,7.877c-0,4.554 0.265,8.276 0.796,11.167c0.531,2.891 1.215,5.168 2.053,6.83c0.838,1.662 1.795,2.808 2.871,3.436c1.075,0.629 2.158,0.943 3.247,0.943c0.642,-0 1.278,-0.084 1.906,-0.252c0.629,-0.167 1.223,-0.37 1.781,-0.607c0.559,-0.238 1.069,-0.496 1.53,-0.775c0.461,-0.28 0.859,-0.531 1.194,-0.755l1.383,1.928c-0.81,0.838 -1.732,1.627 -2.766,2.367c-1.033,0.741 -2.123,1.383 -3.268,1.928c-1.145,0.545 -2.347,0.971 -3.604,1.278c-1.257,0.307 -2.528,0.461 -3.813,0.461c-1.62,-0 -3.191,-0.321 -4.714,-0.964c-1.522,-0.642 -2.87,-1.718 -4.043,-3.226c-1.174,-1.509 -2.116,-3.52 -2.829,-6.034c-0.712,-2.514 -1.068,-5.643 -1.068,-9.386c-0,-1.201 0.028,-2.417 0.084,-3.646c0.056,-1.229 0.139,-2.528 0.251,-3.897c0.112,-1.368 0.258,-2.842 0.44,-4.42c0.182,-1.578 0.398,-3.317 0.65,-5.217l-0.461,-0.084c-1.9,7.012 -3.96,12.892 -6.181,17.641c-2.221,4.749 -4.497,8.576 -6.83,11.481c-2.332,2.905 -4.672,4.979 -7.018,6.222c-2.347,1.243 -4.582,1.865 -6.705,1.865c-1.592,0 -3.121,-0.272 -4.588,-0.817c-1.467,-0.545 -2.772,-1.439 -3.918,-2.682c-1.145,-1.243 -2.06,-2.884 -2.744,-4.923c-0.685,-2.039 -1.027,-4.554 -1.027,-7.543c0,-1.955 0.112,-4.225 0.335,-6.809c0.224,-2.584 0.468,-5.335 0.734,-8.254c0.265,-2.919 0.509,-5.936 0.733,-9.051c0.223,-3.115 0.335,-6.195 0.335,-9.239c0,-1.229 -0.042,-2.291 -0.126,-3.185c-0.083,-0.894 -0.265,-1.634 -0.544,-2.221c-0.28,-0.586 -0.692,-1.019 -1.236,-1.299c-0.545,-0.279 -1.292,-0.419 -2.242,-0.419c-0.95,0 -2.186,0.14 -3.709,0.419c-1.522,0.28 -3.121,0.657 -4.797,1.132l-0.629,-3.017c2.291,-0.81 4.421,-1.516 6.39,-2.116c1.97,-0.601 3.729,-1.097 5.28,-1.488c1.55,-0.391 2.863,-0.684 3.939,-0.88c1.075,-0.195 1.864,-0.293 2.367,-0.293c1.006,-0 1.83,0.182 2.472,0.545c0.643,0.363 1.16,0.894 1.551,1.592c0.391,0.698 0.663,1.536 0.817,2.514c0.153,0.978 0.23,2.095 0.23,3.352Z" style="fill-rule:nonzero;"/><path d="M716.789,65.618c-0,-1.145 -0.084,-2.109 -0.252,-2.891c-0.167,-0.782 -0.426,-1.404 -0.775,-1.865c-0.349,-0.461 -0.789,-0.789 -1.32,-0.984c-0.53,-0.196 -1.159,-0.294 -1.885,-0.294c-1.006,0 -2.207,0.14 -3.604,0.419c-1.396,0.28 -2.989,0.657 -4.777,1.132l-0.628,-3.017c1.983,-0.699 3.89,-1.334 5.72,-1.907c1.829,-0.572 3.512,-1.068 5.049,-1.487c1.536,-0.419 2.891,-0.741 4.064,-0.964c1.173,-0.223 2.095,-0.335 2.766,-0.335c1.62,-0 2.884,0.482 3.792,1.445c0.908,0.964 1.362,2.619 1.362,4.966c-0,0.279 -0.028,0.929 -0.084,1.948c-0.056,1.02 -0.133,2.312 -0.231,3.876c-0.097,1.564 -0.216,3.359 -0.356,5.384c-0.139,2.026 -0.3,4.184 -0.482,6.474c-0.181,2.291 -0.384,4.658 -0.607,7.103c-0.224,2.444 -0.461,4.881 -0.713,7.312l0.252,0.041c2.123,-7.207 4.399,-13.289 6.83,-18.248c2.43,-4.958 4.902,-8.981 7.416,-12.068c2.515,-3.086 5.015,-5.314 7.501,-6.683c2.486,-1.369 4.86,-2.053 7.123,-2.053c1.564,-0 3.073,0.293 4.526,0.88c1.452,0.587 2.744,1.522 3.875,2.807c1.132,1.285 2.033,2.94 2.703,4.966c0.671,2.025 1.006,4.476 1.006,7.353c-0,0.838 -0.049,1.963 -0.147,3.374c-0.098,1.41 -0.216,2.982 -0.356,4.713c-0.14,1.732 -0.3,3.569 -0.482,5.511c-0.182,1.941 -0.342,3.848 -0.482,5.719c-0.139,1.872 -0.258,3.653 -0.356,5.343c-0.098,1.69 -0.147,3.163 -0.147,4.42c0,2.179 0.091,3.953 0.273,5.322c0.181,1.369 0.482,2.451 0.901,3.247c0.419,0.796 0.977,1.341 1.676,1.634c0.698,0.294 1.55,0.44 2.556,0.44c1.452,0 2.961,-0.202 4.525,-0.607c1.564,-0.405 3.143,-0.971 4.735,-1.697l0.796,2.179c-1.006,0.81 -2.277,1.634 -3.813,2.472c-1.536,0.838 -3.15,1.606 -4.84,2.304c-1.69,0.699 -3.373,1.264 -5.049,1.697c-1.676,0.433 -3.156,0.65 -4.441,0.65c-1.509,-0 -2.696,-0.405 -3.562,-1.215c-0.866,-0.81 -1.515,-1.914 -1.948,-3.31c-0.433,-1.397 -0.713,-3.031 -0.838,-4.903c-0.126,-1.872 -0.189,-3.883 -0.189,-6.034c-0,-2.626 0.091,-5.328 0.272,-8.108c0.182,-2.779 0.384,-5.426 0.608,-7.94c0.223,-2.514 0.426,-4.798 0.607,-6.851c0.182,-2.053 0.273,-3.695 0.273,-4.924c-0,-3.268 -0.615,-5.677 -1.844,-7.228c-1.229,-1.55 -2.863,-2.325 -4.902,-2.325c-1.621,-0 -3.325,0.684 -5.112,2.053c-1.788,1.369 -3.569,3.247 -5.343,5.636c-1.774,2.388 -3.478,5.21 -5.112,8.464c-1.634,3.254 -3.108,6.774 -4.42,10.559c-1.313,3.785 -2.403,7.745 -3.269,11.879c-0.866,4.135 -1.411,8.269 -1.634,12.403l-8.757,1.09l-0.671,-0.042c0.224,-2.654 0.433,-5.545 0.629,-8.674c0.195,-3.129 0.377,-6.306 0.544,-9.533c0.168,-3.226 0.315,-6.424 0.44,-9.595c0.126,-3.171 0.238,-6.132 0.336,-8.883c0.097,-2.752 0.167,-5.217 0.209,-7.396c0.042,-2.179 0.063,-3.897 0.063,-5.154Z" style="fill-rule:nonzero;"/><path d="M843.332,1.341c-1.005,7.095 -1.969,14.358 -2.891,21.789c-0.922,7.43 -1.732,14.833 -2.43,22.208c-0.699,7.374 -1.257,14.637 -1.676,21.789c-0.419,7.151 -0.629,14.009 -0.629,20.573c0,3.157 0.035,5.867 0.105,8.129c0.07,2.263 0.181,4.177 0.335,5.741c0.154,1.564 0.363,2.807 0.629,3.729c0.265,0.922 0.6,1.634 1.005,2.137c0.405,0.503 0.873,0.831 1.404,0.985c0.531,0.153 1.159,0.23 1.886,0.23c1.34,0 2.786,-0.202 4.336,-0.607c1.551,-0.405 3.122,-0.971 4.714,-1.697l0.796,2.179c-1.005,0.81 -2.269,1.634 -3.792,2.472c-1.522,0.838 -3.121,1.606 -4.797,2.304c-1.676,0.699 -3.318,1.264 -4.924,1.697c-1.606,0.433 -2.996,0.65 -4.169,0.65c-0.866,-0 -1.62,-0.098 -2.263,-0.293c-0.642,-0.196 -1.194,-0.538 -1.655,-1.027c-0.461,-0.489 -0.852,-1.138 -1.173,-1.948c-0.321,-0.811 -0.58,-1.844 -0.775,-3.101c-0.252,-1.676 -0.454,-3.632 -0.608,-5.866c-0.154,-2.235 -0.23,-4.665 -0.23,-7.291c-0,-2.794 0.104,-5.636 0.314,-8.527c0.209,-2.892 0.552,-5.776 1.027,-8.653l-0.378,-0.084c-2.151,5.671 -4.49,10.797 -7.018,15.378c-2.528,4.581 -5.133,8.492 -7.815,11.733c-2.682,3.24 -5.377,5.733 -8.087,7.479c-2.71,1.746 -5.307,2.619 -7.794,2.619c-2.514,-0 -4.679,-0.636 -6.494,-1.907c-1.816,-1.271 -3.304,-2.947 -4.463,-5.028c-1.159,-2.081 -2.018,-4.469 -2.577,-7.165c-0.559,-2.696 -0.838,-5.468 -0.838,-8.318c0,-3.435 0.377,-6.823 1.131,-10.161c0.755,-3.338 1.837,-6.501 3.248,-9.49c1.411,-2.989 3.108,-5.762 5.091,-8.318c1.983,-2.556 4.204,-4.756 6.662,-6.599c2.459,-1.844 5.119,-3.29 7.983,-4.337c2.863,-1.048 5.873,-1.572 9.029,-1.572c2.207,0 4.407,0.28 6.6,0.838c2.193,0.559 4.379,1.481 6.558,2.766c0.139,-4.749 0.314,-9.575 0.523,-14.477c0.21,-4.903 0.454,-9.672 0.734,-14.31c0.279,-4.637 0.586,-9.022 0.921,-13.157c0.336,-4.134 0.699,-7.821 1.09,-11.062c0.084,-0.67 0.307,-1.25 0.67,-1.739c0.363,-0.489 0.824,-0.88 1.383,-1.173c0.559,-0.293 1.187,-0.51 1.886,-0.649c0.698,-0.14 1.41,-0.21 2.137,-0.21c1.676,-0 3.436,0.447 5.279,1.341Zm-15.042,59.039c-3.772,-1.787 -7.515,-2.681 -11.23,-2.681c-2.71,-0 -5.203,0.433 -7.48,1.299c-2.276,0.866 -4.322,2.06 -6.138,3.582c-1.816,1.523 -3.408,3.311 -4.777,5.364c-1.369,2.053 -2.5,4.26 -3.394,6.62c-0.894,2.361 -1.571,4.812 -2.032,7.354c-0.461,2.542 -0.692,5.07 -0.692,7.584c0,0.894 0.042,1.921 0.126,3.08c0.084,1.159 0.244,2.36 0.482,3.604c0.237,1.243 0.552,2.458 0.943,3.645c0.391,1.187 0.88,2.256 1.466,3.205c0.587,0.95 1.292,1.711 2.116,2.284c0.824,0.573 1.795,0.859 2.912,0.859c2.012,0 4.065,-0.754 6.16,-2.263c2.095,-1.508 4.141,-3.505 6.139,-5.992c1.997,-2.486 3.883,-5.335 5.656,-8.548c1.774,-3.212 3.353,-6.515 4.735,-9.909c1.383,-3.394 2.514,-6.746 3.394,-10.057c0.88,-3.31 1.418,-6.32 1.614,-9.03Z" style="fill-rule:nonzero;"/><path d="M897.595,100.816c0.168,0.083 0.384,0.202 0.65,0.356c0.265,0.153 0.509,0.321 0.733,0.503c0.223,0.181 0.419,0.377 0.586,0.586c0.168,0.21 0.252,0.412 0.252,0.608c-0,0.112 -0.042,0.223 -0.126,0.335c-1.564,2.179 -3.247,4.072 -5.049,5.678c-1.802,1.606 -3.673,2.947 -5.615,4.022c-1.941,1.076 -3.918,1.872 -5.929,2.389c-2.011,0.517 -3.995,0.775 -5.95,0.775c-3.352,-0 -6.425,-0.684 -9.218,-2.053c-2.794,-1.369 -5.196,-3.241 -7.207,-5.615c-2.012,-2.375 -3.583,-5.161 -4.714,-8.36c-1.132,-3.198 -1.697,-6.627 -1.697,-10.286c-0,-2.989 0.328,-5.978 0.984,-8.967c0.657,-2.989 1.606,-5.839 2.85,-8.548c1.243,-2.71 2.758,-5.231 4.546,-7.564c1.788,-2.332 3.82,-4.357 6.097,-6.075c2.276,-1.718 4.776,-3.066 7.5,-4.044c2.724,-0.978 5.65,-1.466 8.778,-1.466c2.068,-0 4.037,0.279 5.909,0.838c1.871,0.558 3.512,1.361 4.923,2.409c1.411,1.047 2.535,2.339 3.373,3.876c0.838,1.536 1.257,3.282 1.257,5.238c0,2.849 -0.929,5.335 -2.786,7.458c-1.858,2.123 -4.421,3.925 -7.689,5.405c-3.269,1.481 -7.117,2.675 -11.544,3.583c-4.428,0.908 -9.212,1.585 -14.352,2.032l0,0.713c0,3.575 0.454,6.844 1.362,9.805c0.908,2.961 2.158,5.496 3.75,7.605c1.593,2.109 3.464,3.75 5.615,4.923c2.151,1.173 4.47,1.76 6.956,1.76c2.514,0 5.091,-0.621 7.731,-1.865c2.64,-1.243 5.314,-3.261 8.024,-6.054Zm-7.877,-33.647c-0,-1.285 -0.217,-2.487 -0.65,-3.604c-0.433,-1.117 -1.034,-2.088 -1.802,-2.912c-0.768,-0.824 -1.683,-1.474 -2.744,-1.949c-1.062,-0.474 -2.207,-0.712 -3.436,-0.712c-1.816,0 -3.464,0.321 -4.945,0.964c-1.48,0.642 -2.807,1.515 -3.98,2.619c-1.174,1.103 -2.207,2.388 -3.101,3.855c-0.894,1.466 -1.655,3.024 -2.284,4.672c-0.628,1.648 -1.138,3.338 -1.529,5.07c-0.391,1.732 -0.671,3.422 -0.838,5.07c3.967,-0.279 7.521,-0.761 10.664,-1.446c3.143,-0.684 5.796,-1.564 7.961,-2.64c2.165,-1.075 3.82,-2.36 4.966,-3.854c1.145,-1.495 1.718,-3.206 1.718,-5.133Z" style="fill-rule:nonzero;"/><path d="M967.948,1.341c-1.005,7.095 -1.969,14.358 -2.891,21.789c-0.922,7.43 -1.732,14.833 -2.43,22.208c-0.699,7.374 -1.257,14.637 -1.676,21.789c-0.419,7.151 -0.629,14.009 -0.629,20.573c0,3.157 0.035,5.867 0.105,8.129c0.07,2.263 0.181,4.177 0.335,5.741c0.154,1.564 0.363,2.807 0.629,3.729c0.265,0.922 0.6,1.634 1.005,2.137c0.405,0.503 0.873,0.831 1.404,0.985c0.531,0.153 1.159,0.23 1.885,0.23c1.341,0 2.787,-0.202 4.337,-0.607c1.551,-0.405 3.122,-0.971 4.714,-1.697l0.796,2.179c-1.005,0.81 -2.269,1.634 -3.792,2.472c-1.522,0.838 -3.121,1.606 -4.797,2.304c-1.677,0.699 -3.318,1.264 -4.924,1.697c-1.606,0.433 -2.996,0.65 -4.169,0.65c-0.866,-0 -1.62,-0.098 -2.263,-0.293c-0.642,-0.196 -1.194,-0.538 -1.655,-1.027c-0.461,-0.489 -0.852,-1.138 -1.173,-1.948c-0.321,-0.811 -0.58,-1.844 -0.775,-3.101c-0.252,-1.676 -0.454,-3.632 -0.608,-5.866c-0.154,-2.235 -0.23,-4.665 -0.23,-7.291c-0,-2.794 0.104,-5.636 0.314,-8.527c0.209,-2.892 0.552,-5.776 1.026,-8.653l-0.377,-0.084c-2.151,5.671 -4.49,10.797 -7.018,15.378c-2.528,4.581 -5.133,8.492 -7.815,11.733c-2.682,3.24 -5.377,5.733 -8.087,7.479c-2.71,1.746 -5.308,2.619 -7.794,2.619c-2.514,-0 -4.679,-0.636 -6.494,-1.907c-1.816,-1.271 -3.304,-2.947 -4.463,-5.028c-1.159,-2.081 -2.018,-4.469 -2.577,-7.165c-0.559,-2.696 -0.838,-5.468 -0.838,-8.318c-0,-3.435 0.377,-6.823 1.131,-10.161c0.755,-3.338 1.837,-6.501 3.248,-9.49c1.41,-2.989 3.107,-5.762 5.091,-8.318c1.983,-2.556 4.204,-4.756 6.662,-6.599c2.458,-1.844 5.119,-3.29 7.982,-4.337c2.864,-1.048 5.874,-1.572 9.03,-1.572c2.207,0 4.407,0.28 6.6,0.838c2.193,0.559 4.379,1.481 6.557,2.766c0.14,-4.749 0.315,-9.575 0.524,-14.477c0.21,-4.903 0.454,-9.672 0.733,-14.31c0.28,-4.637 0.587,-9.022 0.922,-13.157c0.336,-4.134 0.699,-7.821 1.09,-11.062c0.084,-0.67 0.307,-1.25 0.67,-1.739c0.363,-0.489 0.824,-0.88 1.383,-1.173c0.559,-0.293 1.187,-0.51 1.886,-0.649c0.698,-0.14 1.41,-0.21 2.137,-0.21c1.676,-0 3.435,0.447 5.279,1.341Zm-15.043,59.039c-3.771,-1.787 -7.514,-2.681 -11.229,-2.681c-2.71,-0 -5.203,0.433 -7.48,1.299c-2.276,0.866 -4.323,2.06 -6.138,3.582c-1.816,1.523 -3.408,3.311 -4.777,5.364c-1.369,2.053 -2.5,4.26 -3.394,6.62c-0.894,2.361 -1.571,4.812 -2.032,7.354c-0.461,2.542 -0.692,5.07 -0.692,7.584c0,0.894 0.042,1.921 0.126,3.08c0.084,1.159 0.244,2.36 0.482,3.604c0.237,1.243 0.551,2.458 0.943,3.645c0.391,1.187 0.88,2.256 1.466,3.205c0.587,0.95 1.292,1.711 2.116,2.284c0.824,0.573 1.795,0.859 2.912,0.859c2.012,0 4.065,-0.754 6.16,-2.263c2.095,-1.508 4.141,-3.505 6.139,-5.992c1.997,-2.486 3.882,-5.335 5.656,-8.548c1.774,-3.212 3.352,-6.515 4.735,-9.909c1.383,-3.394 2.514,-6.746 3.394,-10.057c0.88,-3.31 1.418,-6.32 1.613,-9.03Z" style="fill-rule:nonzero;"/><path d="M1022.55,35.91c-0.978,-0 -1.843,-0.203 -2.598,-0.608c-0.754,-0.405 -1.396,-0.936 -1.927,-1.592c-0.531,-0.656 -0.936,-1.411 -1.215,-2.263c-0.28,-0.852 -0.419,-1.725 -0.419,-2.619c-0,-1.257 0.209,-2.367 0.628,-3.331c0.419,-0.964 0.964,-1.774 1.634,-2.43c0.671,-0.657 1.411,-1.145 2.221,-1.467c0.81,-0.321 1.606,-0.482 2.389,-0.482c0.949,0 1.801,0.175 2.556,0.524c0.754,0.349 1.403,0.831 1.948,1.446c0.545,0.614 0.964,1.32 1.257,2.116c0.293,0.796 0.44,1.655 0.44,2.577c-0,0.978 -0.168,1.948 -0.503,2.912c-0.335,0.964 -0.803,1.837 -1.404,2.619c-0.6,0.782 -1.326,1.411 -2.178,1.885c-0.852,0.475 -1.795,0.713 -2.829,0.713Zm3.646,18.939c-0.475,3.185 -0.88,6.376 -1.216,9.575c-0.335,3.198 -0.607,6.292 -0.817,9.281c-0.209,2.989 -0.363,5.818 -0.461,8.485c-0.097,2.668 -0.146,5.077 -0.146,7.228c-0,2.906 0.042,5.399 0.126,7.48c0.083,2.081 0.223,3.834 0.419,5.259c0.195,1.424 0.44,2.563 0.733,3.415c0.293,0.852 0.656,1.508 1.089,1.969c0.433,0.461 0.936,0.761 1.509,0.901c0.572,0.139 1.222,0.209 1.948,0.209c1.341,0 2.787,-0.202 4.337,-0.607c1.55,-0.405 3.122,-0.971 4.714,-1.697l0.796,2.179c-1.006,0.81 -2.27,1.634 -3.792,2.472c-1.522,0.838 -3.122,1.606 -4.798,2.304c-1.676,0.699 -3.317,1.264 -4.923,1.697c-1.606,0.433 -2.996,0.65 -4.169,0.65c-0.783,-0 -1.495,-0.063 -2.137,-0.189c-0.643,-0.125 -1.223,-0.44 -1.739,-0.942c-0.517,-0.503 -0.978,-1.244 -1.383,-2.221c-0.405,-0.978 -0.74,-2.305 -1.006,-3.981c-0.265,-1.676 -0.468,-3.771 -0.607,-6.285c-0.14,-2.514 -0.21,-5.559 -0.21,-9.135c0,-2.095 0.021,-4.462 0.063,-7.102c0.042,-2.64 0.105,-5.475 0.189,-8.506c0.083,-3.031 0.195,-6.23 0.335,-9.596c0.139,-3.366 0.321,-6.837 0.544,-10.412c0.056,-0.782 0.266,-1.418 0.629,-1.907c0.363,-0.489 0.81,-0.866 1.341,-1.131c0.531,-0.266 1.096,-0.447 1.697,-0.545c0.6,-0.098 1.152,-0.147 1.655,-0.147c1.872,0 3.631,0.433 5.28,1.299Z" style="fill-rule:nonzero;"/><path d="M1050.54,65.618c-0,-1.145 -0.084,-2.109 -0.252,-2.891c-0.167,-0.782 -0.426,-1.404 -0.775,-1.865c-0.349,-0.461 -0.789,-0.789 -1.32,-0.984c-0.531,-0.196 -1.159,-0.294 -1.886,-0.294c-1.005,0 -2.206,0.14 -3.603,0.419c-1.397,0.28 -2.989,0.657 -4.777,1.132l-0.628,-3.017c1.983,-0.699 3.889,-1.334 5.719,-1.907c1.83,-0.572 3.513,-1.068 5.049,-1.487c1.537,-0.419 2.892,-0.741 4.065,-0.964c1.173,-0.223 2.095,-0.335 2.765,-0.335c1.621,-0 2.885,0.482 3.792,1.445c0.908,0.964 1.362,2.619 1.362,4.966c0,0.279 -0.028,0.929 -0.084,1.948c-0.055,1.02 -0.132,2.312 -0.23,3.876c-0.098,1.564 -0.216,3.359 -0.356,5.384c-0.14,2.026 -0.3,4.184 -0.482,6.474c-0.182,2.291 -0.384,4.658 -0.608,7.103c-0.223,2.444 -0.461,4.881 -0.712,7.312l0.251,0.041c2.124,-7.207 4.4,-13.289 6.83,-18.248c2.431,-4.958 4.903,-8.981 7.417,-12.068c2.514,-3.086 5.014,-5.314 7.501,-6.683c2.486,-1.369 4.86,-2.053 7.123,-2.053c1.564,-0 3.073,0.293 4.525,0.88c1.453,0.587 2.745,1.522 3.876,2.807c1.131,1.285 2.032,2.94 2.703,4.966c0.67,2.025 1.005,4.476 1.005,7.353c0,0.838 -0.048,1.963 -0.146,3.374c-0.098,1.41 -0.217,2.982 -0.356,4.713c-0.14,1.732 -0.301,3.569 -0.482,5.511c-0.182,1.941 -0.342,3.848 -0.482,5.719c-0.14,1.872 -0.259,3.653 -0.356,5.343c-0.098,1.69 -0.147,3.163 -0.147,4.42c0,2.179 0.091,3.953 0.272,5.322c0.182,1.369 0.482,2.451 0.901,3.247c0.419,0.796 0.978,1.341 1.676,1.634c0.699,0.294 1.551,0.44 2.556,0.44c1.453,0 2.961,-0.202 4.526,-0.607c1.564,-0.405 3.142,-0.971 4.735,-1.697l0.796,2.179c-1.006,0.81 -2.277,1.634 -3.813,2.472c-1.537,0.838 -3.15,1.606 -4.84,2.304c-1.69,0.699 -3.373,1.264 -5.049,1.697c-1.676,0.433 -3.157,0.65 -4.442,0.65c-1.508,-0 -2.695,-0.405 -3.561,-1.215c-0.866,-0.81 -1.516,-1.914 -1.949,-3.31c-0.433,-1.397 -0.712,-3.031 -0.838,-4.903c-0.126,-1.872 -0.188,-3.883 -0.188,-6.034c-0,-2.626 0.09,-5.328 0.272,-8.108c0.182,-2.779 0.384,-5.426 0.608,-7.94c0.223,-2.514 0.426,-4.798 0.607,-6.851c0.182,-2.053 0.273,-3.695 0.273,-4.924c-0,-3.268 -0.615,-5.677 -1.844,-7.228c-1.229,-1.55 -2.863,-2.325 -4.903,-2.325c-1.62,-0 -3.324,0.684 -5.112,2.053c-1.787,1.369 -3.568,3.247 -5.342,5.636c-1.774,2.388 -3.478,5.21 -5.112,8.464c-1.634,3.254 -3.108,6.774 -4.421,10.559c-1.313,3.785 -2.402,7.745 -3.268,11.879c-0.866,4.135 -1.411,8.269 -1.634,12.403l-8.758,1.09l-0.67,-0.042c0.223,-2.654 0.433,-5.545 0.628,-8.674c0.196,-3.129 0.377,-6.306 0.545,-9.533c0.168,-3.226 0.314,-6.424 0.44,-9.595c0.126,-3.171 0.237,-6.132 0.335,-8.883c0.098,-2.752 0.168,-5.217 0.21,-7.396c0.042,-2.179 0.063,-3.897 0.063,-5.154Z" style="fill-rule:nonzero;"/><path d="M1140.67,59.501c3.52,-1.174 6.767,-2.2 9.742,-3.08c2.975,-0.88 5.601,-1.613 7.878,-2.2c2.277,-0.587 4.148,-1.027 5.615,-1.32c1.466,-0.293 2.451,-0.44 2.954,-0.44c1.033,0 1.795,0.3 2.284,0.901c0.488,0.601 0.733,1.39 0.733,2.367c-0,0.224 -0.021,0.81 -0.063,1.76l-0.461,8.527c-0.098,1.83 -0.202,3.716 -0.314,5.657c-0.112,1.941 -0.217,3.89 -0.314,5.845l-0.671,13.283c-0.126,2.654 -0.244,5.294 -0.356,7.92c-0.112,2.625 -0.203,5.209 -0.272,7.751c-0.07,2.542 -0.119,4.987 -0.147,7.333l-9.135,1.09l-0.67,-0.042c0.168,-1.872 0.321,-3.883 0.461,-6.034c0.139,-2.151 0.272,-4.267 0.398,-6.348c0.126,-2.081 0.23,-4.03 0.314,-5.845c0.084,-1.816 0.154,-3.325 0.21,-4.526c0.139,-3.659 0.3,-7.822 0.482,-12.487c0.181,-4.665 0.272,-9.791 0.272,-15.378c-0,-1.592 -0.245,-2.744 -0.733,-3.456c-0.489,-0.713 -1.278,-1.069 -2.368,-1.069c-1.117,0 -2.954,0.23 -5.51,0.691c-2.556,0.461 -5.72,1.223 -9.491,2.284l-0.838,-3.184Z" style="fill-rule:nonzero;"/><path d="M1226.65,98.008c0.223,0.363 0.412,0.72 0.565,1.069c0.154,0.349 0.231,0.677 0.231,0.984c-0,0.866 -0.657,1.677 -1.97,2.431c-2.542,1.424 -5.146,2.437 -7.814,3.038c-2.668,0.6 -5.301,0.901 -7.899,0.901c-3.156,-0 -6.173,-0.566 -9.05,-1.698c-2.878,-1.131 -5.413,-2.765 -7.606,-4.902c-2.192,-2.137 -3.938,-4.749 -5.237,-7.836c-1.299,-3.086 -1.949,-6.585 -1.949,-10.496c0,-3.268 0.384,-6.264 1.153,-8.988c0.768,-2.724 1.822,-5.182 3.163,-7.375c1.341,-2.193 2.933,-4.113 4.777,-5.761c1.844,-1.648 3.827,-3.024 5.95,-4.128c2.123,-1.103 4.358,-1.934 6.704,-2.493c2.347,-0.558 4.707,-0.838 7.082,-0.838c2.318,0 4.609,0.308 6.872,0.922c2.262,0.615 4.413,1.571 6.452,2.87c2.04,1.299 3.925,2.941 5.657,4.924c1.732,1.983 3.234,4.351 4.505,7.102c1.271,2.752 2.269,5.894 2.996,9.428c0.726,3.534 1.089,7.48 1.089,11.837c0,3.017 -0.189,6.118 -0.566,9.303c-0.377,3.184 -0.963,6.362 -1.76,9.532c-0.796,3.171 -1.794,6.279 -2.996,9.323c-1.201,3.045 -2.618,5.929 -4.253,8.653c-1.634,2.724 -3.498,5.231 -5.593,7.521c-2.096,2.291 -4.421,4.267 -6.977,5.93c-2.556,1.662 -5.35,2.961 -8.38,3.896c-3.031,0.936 -6.321,1.404 -9.868,1.404c-2.822,0 -5.329,-0.293 -7.522,-0.88c-2.193,-0.586 -4.043,-1.341 -5.552,-2.262c-1.508,-0.922 -2.66,-1.949 -3.457,-3.08c-0.796,-1.132 -1.194,-2.242 -1.194,-3.331c0,-0.559 0.098,-1.139 0.294,-1.739c0.195,-0.601 0.509,-1.16 0.942,-1.676c0.433,-0.517 1.006,-0.985 1.718,-1.404c0.713,-0.419 1.586,-0.726 2.619,-0.922c1.229,1.732 2.542,3.136 3.939,4.211c1.397,1.076 2.821,1.928 4.274,2.556c1.453,0.629 2.919,1.055 4.4,1.278c1.48,0.224 2.919,0.335 4.315,0.335c4.219,0 7.878,-1.04 10.979,-3.121c3.1,-2.081 5.67,-5.043 7.71,-8.884c2.039,-3.841 3.547,-8.471 4.525,-13.89c0.978,-5.419 1.467,-11.481 1.467,-18.185c-0,-6.565 -0.517,-12.145 -1.551,-16.74c-1.033,-4.595 -2.416,-8.332 -4.148,-11.209c-1.732,-2.877 -3.715,-4.965 -5.95,-6.264c-2.235,-1.299 -4.539,-1.949 -6.914,-1.949c-2.486,0 -4.735,0.433 -6.746,1.299c-2.011,0.866 -3.715,2.137 -5.112,3.813c-1.397,1.677 -2.472,3.758 -3.226,6.244c-0.755,2.486 -1.132,5.335 -1.132,8.548c0,1.732 0.168,3.52 0.503,5.363c0.335,1.844 0.838,3.646 1.508,5.406c0.671,1.759 1.516,3.422 2.536,4.986c1.019,1.564 2.213,2.933 3.582,4.106c1.369,1.173 2.912,2.102 4.63,2.787c1.718,0.684 3.611,1.026 5.678,1.026c1.927,0 3.841,-0.23 5.74,-0.691c1.9,-0.461 3.855,-1.222 5.867,-2.284Z" style="fill-rule:nonzero;"/><path d="M1294.91,98.008c0.223,0.363 0.412,0.72 0.565,1.069c0.154,0.349 0.231,0.677 0.231,0.984c-0,0.866 -0.657,1.677 -1.97,2.431c-2.542,1.424 -5.146,2.437 -7.814,3.038c-2.668,0.6 -5.301,0.901 -7.899,0.901c-3.156,-0 -6.173,-0.566 -9.05,-1.698c-2.878,-1.131 -5.413,-2.765 -7.606,-4.902c-2.192,-2.137 -3.938,-4.749 -5.237,-7.836c-1.299,-3.086 -1.949,-6.585 -1.949,-10.496c0,-3.268 0.384,-6.264 1.153,-8.988c0.768,-2.724 1.822,-5.182 3.163,-7.375c1.341,-2.193 2.933,-4.113 4.777,-5.761c1.844,-1.648 3.827,-3.024 5.95,-4.128c2.123,-1.103 4.358,-1.934 6.704,-2.493c2.347,-0.558 4.707,-0.838 7.082,-0.838c2.318,0 4.609,0.308 6.872,0.922c2.262,0.615 4.413,1.571 6.452,2.87c2.04,1.299 3.925,2.941 5.657,4.924c1.732,1.983 3.234,4.351 4.505,7.102c1.271,2.752 2.269,5.894 2.996,9.428c0.726,3.534 1.089,7.48 1.089,11.837c0,3.017 -0.189,6.118 -0.566,9.303c-0.377,3.184 -0.963,6.362 -1.76,9.532c-0.796,3.171 -1.794,6.279 -2.996,9.323c-1.201,3.045 -2.618,5.929 -4.253,8.653c-1.634,2.724 -3.498,5.231 -5.593,7.521c-2.096,2.291 -4.421,4.267 -6.977,5.93c-2.556,1.662 -5.35,2.961 -8.38,3.896c-3.031,0.936 -6.321,1.404 -9.868,1.404c-2.822,0 -5.329,-0.293 -7.522,-0.88c-2.193,-0.586 -4.043,-1.341 -5.552,-2.262c-1.508,-0.922 -2.66,-1.949 -3.457,-3.08c-0.796,-1.132 -1.194,-2.242 -1.194,-3.331c0,-0.559 0.098,-1.139 0.294,-1.739c0.195,-0.601 0.509,-1.16 0.942,-1.676c0.433,-0.517 1.006,-0.985 1.718,-1.404c0.713,-0.419 1.586,-0.726 2.619,-0.922c1.229,1.732 2.542,3.136 3.939,4.211c1.397,1.076 2.821,1.928 4.274,2.556c1.453,0.629 2.919,1.055 4.4,1.278c1.48,0.224 2.919,0.335 4.315,0.335c4.219,0 7.878,-1.04 10.979,-3.121c3.1,-2.081 5.67,-5.043 7.71,-8.884c2.039,-3.841 3.547,-8.471 4.525,-13.89c0.978,-5.419 1.467,-11.481 1.467,-18.185c-0,-6.565 -0.517,-12.145 -1.551,-16.74c-1.033,-4.595 -2.416,-8.332 -4.148,-11.209c-1.732,-2.877 -3.715,-4.965 -5.95,-6.264c-2.235,-1.299 -4.539,-1.949 -6.914,-1.949c-2.486,0 -4.735,0.433 -6.746,1.299c-2.011,0.866 -3.715,2.137 -5.112,3.813c-1.397,1.677 -2.472,3.758 -3.226,6.244c-0.755,2.486 -1.132,5.335 -1.132,8.548c0,1.732 0.168,3.52 0.503,5.363c0.335,1.844 0.838,3.646 1.508,5.406c0.671,1.759 1.516,3.422 2.536,4.986c1.019,1.564 2.213,2.933 3.582,4.106c1.369,1.173 2.912,2.102 4.63,2.787c1.718,0.684 3.611,1.026 5.678,1.026c1.927,0 3.841,-0.23 5.74,-0.691c1.9,-0.461 3.855,-1.222 5.867,-2.284Z" style="fill-rule:nonzero;"/><path d="M1374.86,40.896c0,2.766 -0.516,5.378 -1.55,7.836c-1.034,2.458 -2.402,4.749 -4.106,6.872c-1.704,2.123 -3.646,4.078 -5.825,5.866c-2.179,1.788 -4.413,3.394 -6.704,4.819c1.732,0.921 3.443,1.85 5.133,2.786c1.69,0.936 3.296,1.928 4.819,2.975c1.522,1.048 2.933,2.172 4.232,3.373c1.299,1.201 2.423,2.528 3.373,3.981c0.95,1.452 1.697,3.045 2.242,4.777c0.544,1.732 0.817,3.645 0.817,5.74c-0,3.52 -0.762,6.865 -2.284,10.036c-1.522,3.17 -3.652,5.95 -6.39,8.338c-2.738,2.389 -6.013,4.281 -9.826,5.678c-3.813,1.397 -8.024,2.095 -12.633,2.095c-3.241,-0 -6.349,-0.412 -9.324,-1.236c-2.975,-0.824 -5.6,-2.095 -7.877,-3.813c-2.277,-1.718 -4.092,-3.89 -5.447,-6.516c-1.355,-2.626 -2.033,-5.741 -2.033,-9.344c0,-3.017 0.482,-5.762 1.446,-8.234c0.964,-2.472 2.291,-4.756 3.981,-6.851c1.69,-2.095 3.673,-4.029 5.95,-5.803c2.276,-1.774 4.728,-3.485 7.354,-5.133c-1.956,-1.201 -3.8,-2.5 -5.531,-3.897c-1.732,-1.397 -3.248,-2.968 -4.547,-4.714c-1.299,-1.746 -2.325,-3.708 -3.08,-5.887c-0.754,-2.179 -1.131,-4.637 -1.131,-7.375c0,-3.715 0.782,-7.053 2.347,-10.014c1.564,-2.961 3.659,-5.475 6.285,-7.543c2.626,-2.067 5.629,-3.652 9.009,-4.755c3.38,-1.104 6.9,-1.656 10.559,-1.656c2.626,0 5.182,0.371 7.668,1.111c2.486,0.74 4.7,1.85 6.641,3.331c1.942,1.481 3.499,3.317 4.672,5.51c1.174,2.193 1.76,4.742 1.76,7.647Zm-31.007,30.337c-1.76,1.229 -3.387,2.556 -4.882,3.981c-1.494,1.424 -2.793,2.982 -3.896,4.672c-1.104,1.69 -1.963,3.526 -2.577,5.51c-0.615,1.983 -0.922,4.134 -0.922,6.453c-0,2.514 0.356,4.909 1.068,7.186c0.713,2.277 1.795,4.267 3.248,5.971c1.452,1.704 3.254,3.059 5.405,4.064c2.151,1.006 4.679,1.509 7.584,1.509c2.263,-0 4.498,-0.321 6.705,-0.964c2.206,-0.642 4.19,-1.613 5.95,-2.912c1.759,-1.299 3.177,-2.926 4.253,-4.882c1.075,-1.955 1.613,-4.232 1.613,-6.83c-0,-2.877 -0.559,-5.377 -1.676,-7.5c-1.118,-2.123 -2.598,-4.016 -4.442,-5.678c-1.844,-1.662 -3.953,-3.17 -6.327,-4.525c-2.374,-1.355 -4.819,-2.703 -7.333,-4.044l-3.771,-2.011Zm-8.716,-28.451c0,2.737 0.482,5.161 1.446,7.27c0.964,2.109 2.249,4.001 3.855,5.677c1.606,1.676 3.464,3.192 5.573,4.547c2.109,1.355 4.309,2.647 6.599,3.876c2.124,-1.425 3.981,-2.871 5.573,-4.337c1.593,-1.467 2.92,-3.01 3.981,-4.63c1.062,-1.621 1.858,-3.359 2.388,-5.217c0.531,-1.858 0.797,-3.89 0.797,-6.097c-0,-2.151 -0.308,-4.148 -0.922,-5.992c-0.615,-1.843 -1.537,-3.45 -2.766,-4.818c-1.229,-1.369 -2.758,-2.438 -4.588,-3.206c-1.83,-0.768 -3.96,-1.152 -6.39,-1.152c-2.123,-0 -4.127,0.314 -6.013,0.943c-1.885,0.628 -3.534,1.543 -4.944,2.744c-1.411,1.201 -2.528,2.675 -3.352,4.421c-0.825,1.746 -1.237,3.736 -1.237,5.971Z" style="fill-rule:nonzero;"/></svg>